<?xml version="1.0" encoding="utf-8"?>
<!-- Generator: Adobe Illustrator 17.0.0, SVG Export Plug-In . SVG Version: 6.00 Build 0)  -->
<!DOCTYPE svg PUBLIC "-//W3C//DTD SVG 1.1//EN" "http://www.w3.org/Graphics/SVG/1.1/DTD/svg11.dtd">
<svg version="1.1" id="Layer_1" xmlns="http://www.w3.org/2000/svg" xmlns:xlink="http://www.w3.org/1999/xlink" x="0px" y="0px"
	 width="450px" preserveAspectRatio="xMidYMin" viewBox="0 0 284.912 225.877" enable-background="new 0 0 284.912 225.877"
	 xml:space="preserve">
<g>
	<path fill="#1C425B" d="M77.26,207.529h0.945l2.607,4.532l0.781,1.495h0.044c-0.022-0.366-0.046-0.746-0.071-1.138
		c-0.026-0.393-0.039-0.779-0.039-1.161v-3.729h0.869v7.216H81.45l-2.617-4.543l-0.781-1.485h-0.044
		c0.029,0.367,0.057,0.739,0.082,1.117c0.025,0.377,0.039,0.757,0.039,1.138v3.773H77.26V207.529z"/>
	<path fill="#1C425B" d="M83.892,212.083c0-0.447,0.067-0.845,0.204-1.193c0.135-0.349,0.316-0.644,0.544-0.886
		s0.489-0.425,0.786-0.55c0.298-0.125,0.611-0.187,0.941-0.187c0.329,0,0.643,0.062,0.94,0.187c0.297,0.125,0.559,0.308,0.786,0.55
		s0.409,0.537,0.545,0.886c0.135,0.349,0.203,0.746,0.203,1.193c0,0.44-0.068,0.834-0.203,1.183
		c-0.136,0.349-0.317,0.642-0.545,0.88s-0.489,0.42-0.786,0.545c-0.298,0.124-0.611,0.187-0.94,0.187
		c-0.33,0-0.644-0.062-0.941-0.187c-0.297-0.125-0.559-0.307-0.786-0.545s-0.409-0.531-0.544-0.88
		C83.96,212.917,83.892,212.523,83.892,212.083z M84.828,212.083c0,0.309,0.036,0.587,0.109,0.836
		c0.073,0.25,0.178,0.464,0.313,0.644s0.299,0.319,0.489,0.418c0.191,0.1,0.4,0.148,0.628,0.148c0.227,0,0.436-0.049,0.627-0.148
		c0.19-0.099,0.354-0.238,0.489-0.418s0.24-0.394,0.313-0.644c0.073-0.249,0.11-0.527,0.11-0.836c0-0.308-0.037-0.589-0.11-0.842
		s-0.178-0.471-0.313-0.654c-0.136-0.183-0.299-0.324-0.489-0.423c-0.191-0.1-0.4-0.149-0.627-0.149
		c-0.228,0-0.437,0.05-0.628,0.149c-0.19,0.099-0.354,0.24-0.489,0.423c-0.136,0.184-0.24,0.401-0.313,0.654
		S84.828,211.775,84.828,212.083z"/>
	<path fill="#1C425B" d="M89.865,212.083c0-0.433,0.064-0.823,0.193-1.172c0.128-0.348,0.298-0.643,0.511-0.885
		s0.459-0.43,0.737-0.562s0.572-0.197,0.88-0.197c0.309,0,0.576,0.055,0.803,0.164c0.228,0.11,0.459,0.261,0.693,0.451l-0.044-0.913
		v-2.057h0.913v7.832h-0.748l-0.077-0.627h-0.033c-0.213,0.205-0.456,0.383-0.731,0.533c-0.274,0.15-0.57,0.226-0.886,0.226
		c-0.675,0-1.212-0.242-1.611-0.726C90.065,213.667,89.865,212.977,89.865,212.083z M90.801,212.072
		c0,0.646,0.128,1.147,0.385,1.507s0.62,0.539,1.089,0.539c0.249,0,0.484-0.061,0.704-0.182s0.44-0.306,0.66-0.556v-2.794
		c-0.228-0.205-0.445-0.35-0.654-0.435c-0.209-0.084-0.424-0.126-0.644-0.126c-0.213,0-0.413,0.049-0.6,0.148
		c-0.188,0.099-0.351,0.238-0.489,0.418c-0.14,0.18-0.25,0.395-0.33,0.644C90.841,211.485,90.801,211.763,90.801,212.072z"/>
	<path fill="#1C425B" d="M95.959,212.083c0-0.439,0.067-0.834,0.204-1.183c0.135-0.348,0.314-0.644,0.538-0.886
		c0.224-0.241,0.479-0.427,0.765-0.555c0.286-0.129,0.583-0.192,0.892-0.192c0.337,0,0.64,0.059,0.907,0.176
		s0.491,0.286,0.671,0.506s0.317,0.484,0.412,0.792c0.096,0.308,0.144,0.652,0.144,1.034c0,0.197-0.011,0.362-0.033,0.495H96.85
		c0.036,0.579,0.214,1.037,0.533,1.375c0.318,0.337,0.735,0.506,1.248,0.506c0.257,0,0.493-0.039,0.71-0.116
		c0.216-0.076,0.423-0.178,0.621-0.302l0.319,0.594c-0.235,0.146-0.495,0.275-0.781,0.385c-0.286,0.11-0.612,0.165-0.979,0.165
		c-0.359,0-0.695-0.064-1.007-0.192s-0.583-0.312-0.814-0.55c-0.23-0.238-0.412-0.53-0.544-0.875S95.959,212.523,95.959,212.083z
		 M99.699,211.675c0-0.55-0.115-0.97-0.347-1.259c-0.23-0.29-0.556-0.435-0.974-0.435c-0.19,0-0.372,0.038-0.544,0.115
		c-0.173,0.077-0.329,0.187-0.468,0.33c-0.14,0.143-0.255,0.319-0.347,0.528s-0.152,0.449-0.182,0.72H99.699z"/>
	<path fill="#1C425B" d="M104.121,207.529h1.804c1.114,0,1.962,0.308,2.541,0.924s0.869,1.5,0.869,2.651
		c0,0.571-0.073,1.083-0.22,1.534c-0.147,0.451-0.363,0.832-0.649,1.144c-0.286,0.312-0.638,0.551-1.056,0.716
		s-0.898,0.247-1.441,0.247h-1.848V207.529z M105.858,213.997c0.844,0,1.477-0.253,1.898-0.759c0.421-0.506,0.632-1.218,0.632-2.134
		c0-0.917-0.211-1.617-0.632-2.102c-0.422-0.483-1.055-0.726-1.898-0.726h-0.824v5.72H105.858z"/>
	<path fill="#1C425B" d="M111.26,208.298c-0.176,0-0.325-0.055-0.445-0.165c-0.121-0.109-0.182-0.249-0.182-0.418
		c0-0.176,0.061-0.316,0.182-0.423c0.12-0.106,0.27-0.16,0.445-0.16s0.324,0.054,0.445,0.16s0.182,0.247,0.182,0.423
		c0,0.169-0.061,0.309-0.182,0.418C111.584,208.244,111.435,208.298,111.26,208.298z M110.798,209.399h0.901v5.346h-0.901V209.399z"
		/>
	<path fill="#1C425B" d="M113.36,213.535c0.234,0.19,0.475,0.345,0.721,0.462s0.529,0.176,0.853,0.176
		c0.352,0,0.616-0.08,0.792-0.242c0.176-0.161,0.264-0.358,0.264-0.594c0-0.139-0.036-0.26-0.109-0.363
		c-0.073-0.103-0.167-0.192-0.281-0.269c-0.113-0.077-0.243-0.146-0.39-0.204c-0.147-0.059-0.294-0.117-0.44-0.176
		c-0.19-0.066-0.382-0.142-0.572-0.226s-0.361-0.187-0.511-0.308c-0.15-0.121-0.273-0.263-0.369-0.424s-0.143-0.355-0.143-0.583
		c0-0.213,0.042-0.412,0.126-0.6c0.085-0.187,0.205-0.349,0.363-0.484c0.157-0.135,0.35-0.241,0.577-0.318s0.484-0.115,0.771-0.115
		c0.337,0,0.646,0.059,0.93,0.176c0.282,0.117,0.525,0.26,0.731,0.429l-0.43,0.572c-0.183-0.14-0.374-0.253-0.571-0.341
		c-0.198-0.089-0.415-0.133-0.649-0.133c-0.337,0-0.585,0.077-0.742,0.231c-0.158,0.154-0.236,0.334-0.236,0.539
		c0,0.125,0.032,0.232,0.099,0.324s0.154,0.173,0.264,0.242c0.11,0.069,0.236,0.132,0.38,0.187c0.143,0.056,0.291,0.112,0.445,0.171
		c0.19,0.073,0.383,0.15,0.577,0.231c0.194,0.08,0.369,0.181,0.522,0.302c0.154,0.121,0.281,0.27,0.38,0.446
		c0.099,0.176,0.148,0.389,0.148,0.638c0,0.22-0.042,0.425-0.126,0.616c-0.085,0.19-0.209,0.359-0.374,0.506
		s-0.371,0.262-0.616,0.347c-0.246,0.084-0.526,0.126-0.842,0.126c-0.381,0-0.744-0.069-1.089-0.209
		c-0.345-0.139-0.646-0.315-0.902-0.528L113.36,213.535z"/>
	<path fill="#1C425B" d="M118.113,206.913h0.891v5.302h0.033l2.276-2.815h1.001l-1.793,2.145l2.035,3.201h-0.989l-1.562-2.574
		l-1.001,1.166v1.408h-0.891V206.913z"/>
	<path fill="#1C425B" d="M123.415,213.535c0.234,0.19,0.475,0.345,0.721,0.462s0.529,0.176,0.853,0.176
		c0.352,0,0.616-0.08,0.792-0.242c0.176-0.161,0.264-0.358,0.264-0.594c0-0.139-0.036-0.26-0.109-0.363
		c-0.073-0.103-0.167-0.192-0.281-0.269c-0.113-0.077-0.243-0.146-0.39-0.204c-0.147-0.059-0.294-0.117-0.44-0.176
		c-0.19-0.066-0.382-0.142-0.572-0.226s-0.361-0.187-0.511-0.308c-0.15-0.121-0.273-0.263-0.369-0.424s-0.143-0.355-0.143-0.583
		c0-0.213,0.042-0.412,0.126-0.6c0.085-0.187,0.205-0.349,0.363-0.484c0.157-0.135,0.35-0.241,0.577-0.318s0.484-0.115,0.771-0.115
		c0.337,0,0.646,0.059,0.93,0.176c0.282,0.117,0.525,0.26,0.731,0.429l-0.43,0.572c-0.183-0.14-0.374-0.253-0.571-0.341
		c-0.198-0.089-0.415-0.133-0.649-0.133c-0.337,0-0.585,0.077-0.742,0.231c-0.158,0.154-0.236,0.334-0.236,0.539
		c0,0.125,0.032,0.232,0.099,0.324s0.154,0.173,0.264,0.242c0.11,0.069,0.236,0.132,0.38,0.187c0.143,0.056,0.291,0.112,0.445,0.171
		c0.19,0.073,0.383,0.15,0.577,0.231c0.194,0.08,0.369,0.181,0.522,0.302c0.154,0.121,0.281,0.27,0.38,0.446
		c0.099,0.176,0.148,0.389,0.148,0.638c0,0.22-0.042,0.425-0.126,0.616c-0.085,0.19-0.209,0.359-0.374,0.506
		s-0.371,0.262-0.616,0.347c-0.246,0.084-0.526,0.126-0.842,0.126c-0.381,0-0.744-0.069-1.089-0.209
		c-0.345-0.139-0.646-0.315-0.902-0.528L123.415,213.535z"/>
</g>
<g>
	<g>
		<path fill="#1C425B" d="M63.988,9.147h0.913v3.619h0.033l3.003-3.619h1.034l-2.255,2.75l2.607,4.466H68.3l-2.156-3.751
			l-1.243,1.463v2.288h-0.913V9.147z"/>
		<path fill="#1C425B" d="M70.038,11.018h0.913v3.267c0,0.506,0.079,0.871,0.237,1.095s0.413,0.335,0.764,0.335
			c0.279,0,0.524-0.071,0.737-0.214c0.212-0.144,0.447-0.372,0.704-0.688v-3.795h0.902v5.346h-0.748l-0.077-0.836h-0.033
			c-0.25,0.293-0.512,0.528-0.787,0.704s-0.6,0.264-0.974,0.264c-0.572,0-0.988-0.176-1.249-0.528
			c-0.26-0.352-0.39-0.872-0.39-1.562V11.018z"/>
		<path fill="#1C425B" d="M76.099,8.531h0.902v2.134l-0.022,0.968c0.242-0.212,0.506-0.39,0.792-0.533
			c0.286-0.143,0.579-0.214,0.88-0.214c0.345,0,0.649,0.063,0.913,0.192c0.264,0.128,0.485,0.312,0.666,0.55
			c0.179,0.238,0.315,0.524,0.407,0.857c0.092,0.334,0.138,0.706,0.138,1.117c0,0.454-0.062,0.861-0.187,1.221
			c-0.125,0.359-0.293,0.664-0.506,0.913c-0.212,0.249-0.458,0.438-0.737,0.566s-0.572,0.192-0.88,0.192
			c-0.25,0-0.508-0.057-0.775-0.17c-0.268-0.114-0.519-0.277-0.754-0.49h-0.033l-0.077,0.528h-0.726V8.531z M77.001,15.175
			c0.234,0.206,0.467,0.351,0.698,0.435c0.231,0.085,0.435,0.127,0.61,0.127c0.22,0,0.424-0.05,0.611-0.148s0.348-0.238,0.484-0.418
			s0.242-0.401,0.319-0.666c0.077-0.264,0.116-0.561,0.116-0.891c0-0.293-0.026-0.561-0.077-0.803s-0.134-0.449-0.248-0.622
			c-0.114-0.172-0.26-0.306-0.44-0.401c-0.18-0.095-0.394-0.143-0.644-0.143c-0.433,0-0.909,0.242-1.43,0.726V15.175z"/>
		<path fill="#1C425B" d="M81.808,13.701c0-0.439,0.068-0.834,0.204-1.183c0.136-0.348,0.315-0.644,0.539-0.886
			c0.224-0.241,0.479-0.427,0.765-0.555c0.286-0.129,0.583-0.192,0.891-0.192c0.337,0,0.64,0.059,0.908,0.176
			s0.491,0.286,0.671,0.506s0.317,0.484,0.413,0.792s0.143,0.652,0.143,1.034c0,0.197-0.011,0.362-0.033,0.495h-3.608
			c0.037,0.579,0.214,1.037,0.534,1.375c0.319,0.337,0.735,0.506,1.249,0.506c0.256,0,0.493-0.039,0.709-0.116
			c0.216-0.076,0.423-0.178,0.621-0.302l0.319,0.594c-0.235,0.146-0.495,0.275-0.781,0.385c-0.286,0.11-0.612,0.165-0.979,0.165
			c-0.359,0-0.695-0.064-1.006-0.192c-0.312-0.128-0.583-0.312-0.814-0.55s-0.413-0.53-0.544-0.875
			C81.874,14.533,81.808,14.142,81.808,13.701z M85.548,13.294c0-0.55-0.116-0.97-0.347-1.259c-0.231-0.29-0.555-0.435-0.974-0.435
			c-0.19,0-0.372,0.038-0.544,0.115s-0.328,0.187-0.467,0.33c-0.14,0.143-0.255,0.319-0.347,0.528s-0.152,0.449-0.181,0.72H85.548z"
			/>
		<path fill="#1C425B" d="M87.66,11.018h0.748l0.077,0.968h0.033c0.184-0.337,0.405-0.605,0.666-0.803
			c0.26-0.198,0.545-0.297,0.853-0.297c0.213,0,0.403,0.036,0.572,0.109l-0.176,0.792c-0.088-0.029-0.168-0.051-0.242-0.065
			c-0.074-0.015-0.165-0.022-0.275-0.022c-0.228,0-0.464,0.092-0.71,0.275c-0.246,0.183-0.46,0.502-0.643,0.957v3.432H87.66V11.018z
			"/>
		<path fill="#1C425B" d="M91.477,11.018h0.748l0.077,0.77h0.033c0.257-0.257,0.526-0.471,0.809-0.644
			c0.282-0.172,0.611-0.258,0.985-0.258c0.564,0,0.977,0.176,1.237,0.527c0.26,0.353,0.391,0.873,0.391,1.562v3.388h-0.902v-3.267
			c0-0.507-0.081-0.871-0.242-1.095c-0.162-0.224-0.418-0.336-0.77-0.336c-0.279,0-0.524,0.07-0.737,0.209
			c-0.212,0.14-0.455,0.345-0.726,0.616v3.872h-0.902V11.018z"/>
		<path fill="#1C425B" d="M97.098,13.701c0-0.439,0.068-0.834,0.204-1.183c0.136-0.348,0.315-0.644,0.539-0.886
			c0.224-0.241,0.479-0.427,0.765-0.555c0.286-0.129,0.583-0.192,0.891-0.192c0.337,0,0.64,0.059,0.908,0.176
			s0.491,0.286,0.671,0.506s0.317,0.484,0.413,0.792s0.143,0.652,0.143,1.034c0,0.197-0.011,0.362-0.033,0.495h-3.608
			c0.037,0.579,0.214,1.037,0.534,1.375c0.319,0.337,0.735,0.506,1.249,0.506c0.256,0,0.493-0.039,0.709-0.116
			c0.216-0.076,0.423-0.178,0.621-0.302l0.319,0.594c-0.235,0.146-0.495,0.275-0.781,0.385c-0.286,0.11-0.612,0.165-0.979,0.165
			c-0.359,0-0.695-0.064-1.006-0.192c-0.312-0.128-0.583-0.312-0.814-0.55s-0.413-0.53-0.544-0.875
			C97.164,14.533,97.098,14.142,97.098,13.701z M100.838,13.294c0-0.55-0.116-0.97-0.347-1.259c-0.231-0.29-0.555-0.435-0.974-0.435
			c-0.19,0-0.372,0.038-0.544,0.115s-0.328,0.187-0.467,0.33c-0.14,0.143-0.255,0.319-0.347,0.528s-0.152,0.449-0.181,0.72H100.838z
			"/>
		<path fill="#1C425B" d="M102.951,11.754h-0.792v-0.682l0.836-0.055l0.11-1.496h0.759v1.496h1.441v0.736h-1.441v2.971
			c0,0.33,0.06,0.585,0.181,0.765s0.335,0.269,0.644,0.269c0.095,0,0.198-0.014,0.308-0.044c0.11-0.028,0.209-0.062,0.297-0.099
			l0.176,0.682c-0.147,0.052-0.307,0.098-0.479,0.138c-0.172,0.04-0.343,0.061-0.512,0.061c-0.286,0-0.526-0.044-0.721-0.132
			s-0.352-0.209-0.473-0.363c-0.121-0.153-0.208-0.341-0.259-0.561s-0.077-0.462-0.077-0.727V11.754z"/>
		<path fill="#1C425B" d="M106.008,13.701c0-0.439,0.068-0.834,0.204-1.183c0.136-0.348,0.315-0.644,0.539-0.886
			c0.224-0.241,0.479-0.427,0.765-0.555c0.286-0.129,0.583-0.192,0.891-0.192c0.337,0,0.64,0.059,0.908,0.176
			s0.491,0.286,0.671,0.506s0.317,0.484,0.413,0.792s0.143,0.652,0.143,1.034c0,0.197-0.011,0.362-0.033,0.495h-3.608
			c0.037,0.579,0.214,1.037,0.534,1.375c0.319,0.337,0.735,0.506,1.249,0.506c0.256,0,0.493-0.039,0.709-0.116
			c0.216-0.076,0.423-0.178,0.621-0.302l0.319,0.594c-0.235,0.146-0.495,0.275-0.781,0.385c-0.286,0.11-0.612,0.165-0.979,0.165
			c-0.359,0-0.695-0.064-1.006-0.192c-0.312-0.128-0.583-0.312-0.814-0.55s-0.413-0.53-0.544-0.875
			C106.074,14.533,106.008,14.142,106.008,13.701z M109.748,13.294c0-0.55-0.116-0.97-0.347-1.259
			c-0.231-0.29-0.555-0.435-0.974-0.435c-0.19,0-0.372,0.038-0.544,0.115s-0.328,0.187-0.467,0.33
			c-0.14,0.143-0.255,0.319-0.347,0.528s-0.152,0.449-0.181,0.72H109.748z"/>
		<path fill="#1C425B" d="M111.717,15.153c0.235,0.19,0.475,0.345,0.721,0.462s0.53,0.176,0.853,0.176
			c0.352,0,0.616-0.08,0.792-0.242c0.176-0.161,0.264-0.358,0.264-0.594c0-0.139-0.037-0.26-0.11-0.363
			c-0.073-0.103-0.167-0.192-0.28-0.269c-0.114-0.077-0.244-0.146-0.391-0.204s-0.293-0.117-0.44-0.176
			c-0.191-0.066-0.381-0.142-0.572-0.226c-0.191-0.084-0.361-0.187-0.512-0.308s-0.273-0.263-0.369-0.424s-0.143-0.355-0.143-0.583
			c0-0.213,0.042-0.412,0.127-0.6c0.084-0.187,0.205-0.349,0.363-0.484c0.158-0.135,0.35-0.241,0.578-0.318
			c0.227-0.077,0.484-0.115,0.77-0.115c0.337,0,0.647,0.059,0.929,0.176s0.526,0.26,0.731,0.429l-0.429,0.572
			c-0.184-0.14-0.374-0.253-0.572-0.341c-0.198-0.089-0.414-0.133-0.649-0.133c-0.337,0-0.585,0.077-0.742,0.231
			c-0.158,0.154-0.237,0.334-0.237,0.539c0,0.125,0.033,0.232,0.099,0.324s0.154,0.173,0.264,0.242
			c0.11,0.069,0.236,0.132,0.379,0.187c0.143,0.056,0.292,0.112,0.445,0.171c0.191,0.073,0.383,0.15,0.578,0.231
			c0.194,0.08,0.369,0.181,0.522,0.302s0.28,0.27,0.379,0.446c0.099,0.176,0.148,0.389,0.148,0.638c0,0.22-0.042,0.425-0.126,0.616
			c-0.084,0.19-0.209,0.359-0.374,0.506c-0.165,0.146-0.37,0.262-0.616,0.347c-0.246,0.084-0.526,0.126-0.842,0.126
			c-0.381,0-0.744-0.069-1.089-0.209c-0.345-0.139-0.646-0.315-0.902-0.528L111.717,15.153z"/>
		<path fill="#1C425B" d="M118.779,9.147h2.211c0.396,0,0.759,0.036,1.089,0.109c0.33,0.074,0.61,0.193,0.841,0.358
			c0.231,0.164,0.411,0.383,0.539,0.654s0.192,0.604,0.192,1.001c0,0.381-0.064,0.711-0.192,0.99
			c-0.128,0.278-0.31,0.51-0.544,0.692c-0.235,0.184-0.515,0.321-0.841,0.413c-0.327,0.092-0.688,0.137-1.083,0.137h-1.298v2.86
			h-0.913V9.147z M120.88,12.755c0.631,0,1.098-0.119,1.403-0.357c0.304-0.238,0.457-0.614,0.457-1.127
			c0-0.521-0.154-0.882-0.462-1.084c-0.308-0.201-0.773-0.302-1.397-0.302h-1.188v2.87H120.88z"/>
		<path fill="#1C425B" d="M124.367,13.701c0-0.447,0.068-0.845,0.204-1.193s0.317-0.644,0.544-0.886s0.49-0.425,0.787-0.55
			s0.61-0.187,0.94-0.187s0.644,0.062,0.94,0.187s0.559,0.308,0.787,0.55c0.227,0.242,0.409,0.537,0.544,0.886
			s0.204,0.746,0.204,1.193c0,0.44-0.068,0.834-0.204,1.183s-0.317,0.642-0.544,0.88c-0.228,0.238-0.49,0.42-0.787,0.545
			c-0.297,0.124-0.61,0.187-0.94,0.187s-0.644-0.062-0.94-0.187c-0.297-0.125-0.559-0.307-0.787-0.545
			c-0.228-0.238-0.409-0.531-0.544-0.88S124.367,14.142,124.367,13.701z M125.302,13.701c0,0.309,0.037,0.587,0.11,0.836
			c0.073,0.25,0.178,0.464,0.313,0.644s0.299,0.319,0.49,0.418c0.19,0.1,0.399,0.148,0.627,0.148c0.227,0,0.436-0.049,0.627-0.148
			c0.191-0.099,0.354-0.238,0.49-0.418c0.135-0.18,0.24-0.394,0.313-0.644c0.073-0.249,0.11-0.527,0.11-0.836
			c0-0.308-0.037-0.589-0.11-0.842c-0.074-0.253-0.178-0.471-0.313-0.654c-0.136-0.183-0.299-0.324-0.49-0.423
			c-0.191-0.1-0.4-0.149-0.627-0.149c-0.228,0-0.437,0.05-0.627,0.149c-0.191,0.099-0.354,0.24-0.49,0.423
			c-0.136,0.184-0.24,0.401-0.313,0.654S125.302,13.394,125.302,13.701z"/>
		<path fill="#1C425B" d="M130.34,13.701c0-0.433,0.064-0.823,0.192-1.172c0.128-0.348,0.299-0.643,0.512-0.885
			c0.212-0.242,0.458-0.43,0.737-0.562s0.572-0.197,0.88-0.197s0.576,0.055,0.803,0.164c0.227,0.11,0.458,0.261,0.693,0.451
			l-0.044-0.913V8.531h0.913v7.832h-0.748l-0.077-0.627h-0.033c-0.213,0.205-0.457,0.383-0.732,0.533
			c-0.275,0.15-0.57,0.226-0.885,0.226c-0.675,0-1.212-0.242-1.611-0.726C130.54,15.285,130.34,14.596,130.34,13.701z
			 M131.275,13.69c0,0.646,0.128,1.147,0.385,1.507s0.62,0.539,1.089,0.539c0.25,0,0.484-0.061,0.704-0.182
			c0.22-0.121,0.44-0.306,0.66-0.556v-2.794c-0.228-0.205-0.445-0.35-0.654-0.435c-0.209-0.084-0.424-0.126-0.644-0.126
			c-0.213,0-0.413,0.049-0.6,0.148c-0.187,0.099-0.351,0.238-0.49,0.418s-0.249,0.395-0.33,0.644
			C131.315,13.104,131.275,13.382,131.275,13.69z"/>
		<path fill="#1C425B" d="M136.687,15.153c0.235,0.19,0.475,0.345,0.721,0.462s0.53,0.176,0.853,0.176
			c0.352,0,0.616-0.08,0.792-0.242c0.176-0.161,0.264-0.358,0.264-0.594c0-0.139-0.037-0.26-0.11-0.363
			c-0.073-0.103-0.167-0.192-0.28-0.269c-0.114-0.077-0.244-0.146-0.391-0.204s-0.293-0.117-0.44-0.176
			c-0.191-0.066-0.381-0.142-0.572-0.226c-0.191-0.084-0.361-0.187-0.512-0.308s-0.273-0.263-0.369-0.424s-0.143-0.355-0.143-0.583
			c0-0.213,0.042-0.412,0.127-0.6c0.084-0.187,0.205-0.349,0.363-0.484c0.158-0.135,0.35-0.241,0.578-0.318
			c0.227-0.077,0.484-0.115,0.77-0.115c0.337,0,0.647,0.059,0.929,0.176s0.526,0.26,0.731,0.429l-0.429,0.572
			c-0.184-0.14-0.374-0.253-0.572-0.341c-0.198-0.089-0.414-0.133-0.649-0.133c-0.337,0-0.585,0.077-0.742,0.231
			c-0.158,0.154-0.237,0.334-0.237,0.539c0,0.125,0.033,0.232,0.099,0.324s0.154,0.173,0.264,0.242
			c0.11,0.069,0.236,0.132,0.379,0.187c0.143,0.056,0.292,0.112,0.445,0.171c0.191,0.073,0.383,0.15,0.578,0.231
			c0.194,0.08,0.369,0.181,0.522,0.302s0.28,0.27,0.379,0.446c0.099,0.176,0.148,0.389,0.148,0.638c0,0.22-0.042,0.425-0.126,0.616
			c-0.084,0.19-0.209,0.359-0.374,0.506c-0.165,0.146-0.37,0.262-0.616,0.347c-0.246,0.084-0.526,0.126-0.842,0.126
			c-0.381,0-0.744-0.069-1.089-0.209c-0.345-0.139-0.646-0.315-0.902-0.528L136.687,15.153z"/>
	</g>
</g>
<g>
	<path fill="#FFFFFF" stroke="#1C425B" stroke-width="0.75" stroke-miterlimit="10" d="M192.491,146.669H11.042
		c-0.792,0-1.434-0.997-1.434-2.226V96.895c0-1.229,0.642-2.226,1.434-2.226h181.449c0.792,0,1.434,0.997,1.434,2.226v47.548
		C193.926,145.673,193.284,146.669,192.491,146.669z"/>
	<g>
		<g>
			<path fill="#1C425B" d="M65.296,118.355h-2.079v-1.078h5.434v1.078h-2.079v6.116h-1.276V118.355z"/>
			<path fill="#1C425B" d="M68.607,121.776c0-0.447,0.069-0.847,0.209-1.198c0.139-0.353,0.328-0.649,0.566-0.892
				s0.511-0.427,0.819-0.556c0.308-0.128,0.631-0.192,0.968-0.192c0.337,0,0.662,0.064,0.973,0.192
				c0.312,0.129,0.585,0.313,0.82,0.556c0.234,0.242,0.423,0.539,0.566,0.892c0.143,0.352,0.214,0.751,0.214,1.198
				s-0.071,0.848-0.214,1.199c-0.143,0.353-0.332,0.649-0.566,0.891c-0.235,0.242-0.508,0.426-0.82,0.551
				c-0.312,0.124-0.636,0.187-0.973,0.187c-0.337,0-0.66-0.062-0.968-0.187c-0.308-0.125-0.581-0.309-0.819-0.551
				c-0.238-0.241-0.427-0.538-0.566-0.891C68.677,122.624,68.607,122.223,68.607,121.776z M69.905,121.776
				c0,0.543,0.112,0.978,0.335,1.304s0.534,0.489,0.93,0.489s0.708-0.163,0.935-0.489c0.227-0.326,0.341-0.761,0.341-1.304
				c0-0.55-0.114-0.988-0.341-1.314c-0.228-0.326-0.539-0.489-0.935-0.489s-0.706,0.163-0.93,0.489S69.905,121.226,69.905,121.776z"
				/>
			<path fill="#1C425B" d="M74.998,119.07h1.045l0.088,0.957h0.044c0.19-0.352,0.421-0.621,0.693-0.809
				c0.271-0.187,0.55-0.28,0.836-0.28c0.257,0,0.462,0.037,0.616,0.11l-0.22,1.1c-0.095-0.029-0.183-0.051-0.264-0.065
				c-0.081-0.015-0.18-0.022-0.297-0.022c-0.213,0-0.437,0.083-0.671,0.248s-0.436,0.452-0.605,0.863v3.3h-1.265V119.07z"/>
			<path fill="#1C425B" d="M79.046,119.07h1.265v3.224c0,0.447,0.066,0.763,0.198,0.945c0.132,0.184,0.345,0.275,0.638,0.275
				c0.234,0,0.441-0.059,0.622-0.176c0.179-0.117,0.372-0.309,0.577-0.572v-3.696h1.265v5.401h-1.034l-0.099-0.792h-0.033
				c-0.235,0.278-0.489,0.502-0.765,0.671c-0.275,0.169-0.599,0.253-0.973,0.253c-0.58,0-1.001-0.185-1.265-0.556
				c-0.264-0.37-0.396-0.899-0.396-1.589V119.07z"/>
			<path fill="#1C425B" d="M85.272,123.042c0.242,0.19,0.482,0.339,0.721,0.445s0.497,0.159,0.775,0.159
				c0.293,0,0.51-0.061,0.649-0.182s0.209-0.276,0.209-0.467c0-0.11-0.033-0.207-0.099-0.292c-0.066-0.084-0.154-0.159-0.264-0.226
				c-0.11-0.065-0.235-0.126-0.374-0.182c-0.14-0.055-0.279-0.111-0.418-0.17c-0.176-0.066-0.356-0.144-0.539-0.231
				c-0.184-0.088-0.347-0.194-0.49-0.318c-0.143-0.125-0.26-0.27-0.352-0.435c-0.091-0.165-0.137-0.361-0.137-0.589
				c0-0.477,0.176-0.865,0.528-1.166s0.833-0.451,1.441-0.451c0.374,0,0.711,0.066,1.012,0.198s0.561,0.282,0.781,0.451l-0.583,0.77
				c-0.19-0.139-0.383-0.251-0.577-0.335c-0.194-0.085-0.398-0.127-0.611-0.127c-0.271,0-0.471,0.057-0.599,0.171
				c-0.128,0.113-0.193,0.255-0.193,0.423c0,0.11,0.031,0.204,0.094,0.281c0.062,0.077,0.145,0.145,0.248,0.203
				c0.103,0.059,0.222,0.114,0.357,0.165c0.136,0.052,0.277,0.103,0.423,0.154c0.184,0.065,0.367,0.141,0.55,0.226
				c0.183,0.084,0.35,0.188,0.5,0.313c0.15,0.124,0.271,0.276,0.363,0.456s0.138,0.395,0.138,0.644c0,0.234-0.046,0.453-0.138,0.654
				c-0.092,0.202-0.226,0.378-0.401,0.528c-0.176,0.15-0.396,0.27-0.66,0.357c-0.264,0.088-0.564,0.132-0.902,0.132
				c-0.374,0-0.743-0.071-1.105-0.214c-0.363-0.144-0.677-0.321-0.94-0.534L85.272,123.042z"/>
			<path fill="#1C425B" d="M92.577,122.678c0.257,0.242,0.55,0.438,0.88,0.589s0.66,0.226,0.99,0.226
				c0.411,0,0.722-0.085,0.935-0.254c0.212-0.168,0.319-0.392,0.319-0.671c0-0.146-0.027-0.271-0.083-0.374
				c-0.055-0.103-0.132-0.192-0.231-0.27c-0.099-0.076-0.216-0.148-0.352-0.214c-0.136-0.066-0.284-0.132-0.445-0.198l-0.99-0.429
				c-0.176-0.073-0.35-0.165-0.522-0.275s-0.328-0.242-0.467-0.396c-0.14-0.154-0.251-0.334-0.336-0.539
				c-0.084-0.205-0.126-0.44-0.126-0.704c0-0.286,0.061-0.552,0.182-0.798c0.121-0.245,0.288-0.46,0.5-0.644
				c0.213-0.183,0.468-0.326,0.765-0.429s0.622-0.154,0.974-0.154c0.418,0,0.821,0.083,1.21,0.248
				c0.388,0.165,0.722,0.387,1.001,0.665l-0.649,0.814c-0.235-0.191-0.477-0.342-0.726-0.451c-0.25-0.11-0.528-0.165-0.836-0.165
				c-0.345,0-0.62,0.075-0.825,0.226c-0.206,0.15-0.308,0.357-0.308,0.621c0,0.14,0.031,0.259,0.094,0.357
				c0.062,0.1,0.146,0.188,0.253,0.265c0.106,0.076,0.229,0.146,0.368,0.209c0.14,0.062,0.282,0.122,0.429,0.181l0.979,0.407
				c0.212,0.088,0.407,0.191,0.583,0.309s0.328,0.253,0.457,0.406c0.128,0.154,0.229,0.332,0.302,0.534
				c0.073,0.201,0.11,0.435,0.11,0.698c0,0.293-0.059,0.568-0.176,0.825s-0.288,0.482-0.511,0.676
				c-0.224,0.195-0.495,0.349-0.814,0.463c-0.319,0.113-0.681,0.17-1.083,0.17c-0.484,0-0.952-0.092-1.403-0.274
				c-0.451-0.184-0.849-0.444-1.193-0.781L92.577,122.678z"/>
			<path fill="#1C425B" d="M98.396,120.071h-0.77v-0.945l0.836-0.056l0.154-1.474h1.056v1.474h1.375v1.001h-1.375v2.574
				c0,0.631,0.253,0.946,0.759,0.946c0.095,0,0.192-0.011,0.292-0.033c0.099-0.021,0.189-0.051,0.27-0.088l0.22,0.935
				c-0.147,0.052-0.313,0.098-0.5,0.138s-0.387,0.061-0.6,0.061c-0.315,0-0.582-0.048-0.797-0.143
				c-0.217-0.096-0.393-0.229-0.528-0.401c-0.136-0.173-0.235-0.378-0.297-0.616c-0.062-0.238-0.093-0.504-0.093-0.798V120.071z"/>
			<path fill="#1C425B" d="M101.717,121.776c0-0.447,0.069-0.847,0.209-1.198c0.139-0.353,0.328-0.649,0.566-0.892
				s0.511-0.427,0.819-0.556c0.308-0.128,0.631-0.192,0.968-0.192c0.337,0,0.662,0.064,0.973,0.192
				c0.312,0.129,0.585,0.313,0.82,0.556c0.234,0.242,0.423,0.539,0.566,0.892c0.143,0.352,0.214,0.751,0.214,1.198
				s-0.071,0.848-0.214,1.199c-0.143,0.353-0.332,0.649-0.566,0.891c-0.235,0.242-0.508,0.426-0.82,0.551
				c-0.312,0.124-0.636,0.187-0.973,0.187c-0.337,0-0.66-0.062-0.968-0.187c-0.308-0.125-0.581-0.309-0.819-0.551
				c-0.238-0.241-0.427-0.538-0.566-0.891C101.786,122.624,101.717,122.223,101.717,121.776z M103.015,121.776
				c0,0.543,0.112,0.978,0.335,1.304s0.534,0.489,0.93,0.489s0.708-0.163,0.935-0.489c0.227-0.326,0.341-0.761,0.341-1.304
				c0-0.55-0.114-0.988-0.341-1.314c-0.228-0.326-0.539-0.489-0.935-0.489s-0.706,0.163-0.93,0.489S103.015,121.226,103.015,121.776
				z"/>
			<path fill="#1C425B" d="M108.108,119.07h1.045l0.088,0.957h0.044c0.19-0.352,0.421-0.621,0.693-0.809
				c0.271-0.187,0.55-0.28,0.836-0.28c0.257,0,0.462,0.037,0.616,0.11l-0.22,1.1c-0.095-0.029-0.183-0.051-0.264-0.065
				c-0.081-0.015-0.18-0.022-0.297-0.022c-0.213,0-0.437,0.083-0.671,0.248s-0.436,0.452-0.605,0.863v3.3h-1.265V119.07z"/>
			<path fill="#1C425B" d="M111.683,123.019c0-0.579,0.253-1.026,0.759-1.342s1.312-0.535,2.42-0.66
				c0-0.139-0.019-0.273-0.055-0.401s-0.093-0.242-0.17-0.341c-0.077-0.1-0.176-0.176-0.297-0.231
				c-0.121-0.055-0.273-0.082-0.457-0.082c-0.271,0-0.534,0.051-0.787,0.153c-0.253,0.104-0.497,0.228-0.731,0.374l-0.462-0.847
				c0.301-0.19,0.636-0.355,1.006-0.495c0.371-0.139,0.772-0.209,1.205-0.209c0.682,0,1.188,0.2,1.518,0.6s0.495,0.978,0.495,1.732
				v3.201h-1.034l-0.099-0.594h-0.033c-0.242,0.205-0.5,0.378-0.775,0.517c-0.275,0.14-0.574,0.209-0.896,0.209
				c-0.477,0-0.864-0.145-1.161-0.435C111.832,123.879,111.683,123.496,111.683,123.019z M112.915,122.92
				c0,0.242,0.071,0.418,0.214,0.527c0.143,0.11,0.328,0.165,0.556,0.165c0.22,0,0.421-0.051,0.605-0.153
				c0.183-0.103,0.374-0.249,0.572-0.44v-1.21c-0.367,0.044-0.675,0.103-0.924,0.176c-0.25,0.073-0.449,0.156-0.6,0.248
				s-0.258,0.196-0.325,0.313C112.948,122.664,112.915,122.789,112.915,122.92z"/>
			<path fill="#1C425B" d="M117.304,125.45c0-0.227,0.066-0.438,0.198-0.632c0.132-0.194,0.322-0.369,0.572-0.522v-0.044
				c-0.139-0.088-0.255-0.205-0.347-0.353c-0.092-0.146-0.137-0.33-0.137-0.55c0-0.213,0.061-0.405,0.182-0.577
				c0.121-0.173,0.258-0.313,0.412-0.424v-0.044c-0.183-0.14-0.346-0.332-0.489-0.577c-0.143-0.246-0.214-0.53-0.214-0.853
				c0-0.309,0.059-0.583,0.176-0.825s0.273-0.445,0.467-0.61s0.42-0.29,0.677-0.374c0.256-0.084,0.528-0.127,0.814-0.127
				c0.146,0,0.288,0.013,0.423,0.039c0.136,0.025,0.259,0.057,0.369,0.093h1.936v0.936h-0.99c0.088,0.103,0.162,0.232,0.22,0.391
				c0.059,0.157,0.088,0.332,0.088,0.522c0,0.301-0.053,0.564-0.159,0.792c-0.106,0.228-0.251,0.418-0.435,0.571
				c-0.184,0.154-0.4,0.271-0.649,0.353c-0.25,0.081-0.517,0.121-0.803,0.121c-0.117,0-0.238-0.011-0.363-0.033
				c-0.125-0.022-0.25-0.059-0.374-0.11c-0.081,0.074-0.145,0.147-0.193,0.221c-0.047,0.073-0.071,0.172-0.071,0.297
				c0,0.153,0.064,0.274,0.192,0.363c0.128,0.088,0.357,0.132,0.688,0.132h0.957c0.653,0,1.146,0.104,1.479,0.313
				s0.5,0.548,0.5,1.018c0,0.264-0.068,0.513-0.204,0.748c-0.136,0.234-0.328,0.436-0.577,0.604
				c-0.25,0.169-0.552,0.303-0.908,0.401c-0.356,0.1-0.753,0.148-1.193,0.148c-0.323,0-0.622-0.029-0.896-0.088
				s-0.512-0.146-0.709-0.264c-0.198-0.117-0.354-0.264-0.468-0.44C117.361,125.89,117.304,125.685,117.304,125.45z M118.36,125.263
				c0,0.242,0.123,0.431,0.368,0.566c0.246,0.136,0.585,0.203,1.018,0.203c0.44,0,0.794-0.086,1.062-0.258
				c0.268-0.173,0.402-0.376,0.402-0.61c0-0.213-0.083-0.356-0.248-0.43s-0.402-0.109-0.709-0.109h-0.737
				c-0.293,0-0.539-0.026-0.737-0.077C118.499,124.761,118.36,125,118.36,125.263z M119.614,121.963c0.257,0,0.477-0.094,0.66-0.28
				c0.183-0.188,0.275-0.457,0.275-0.809c0-0.338-0.09-0.6-0.27-0.787c-0.18-0.187-0.401-0.28-0.666-0.28s-0.488,0.092-0.671,0.275
				c-0.184,0.183-0.275,0.447-0.275,0.792c0,0.352,0.091,0.621,0.275,0.809C119.126,121.87,119.35,121.963,119.614,121.963z"/>
			<path fill="#1C425B" d="M122.859,121.776c0-0.439,0.069-0.836,0.209-1.188c0.139-0.353,0.324-0.649,0.555-0.892
				c0.231-0.241,0.497-0.429,0.798-0.561c0.3-0.132,0.608-0.198,0.924-0.198c0.367,0,0.689,0.062,0.968,0.188
				c0.279,0.124,0.512,0.301,0.699,0.527c0.187,0.228,0.328,0.499,0.423,0.814s0.143,0.66,0.143,1.034
				c0,0.249-0.019,0.447-0.055,0.594h-3.432c0.059,0.491,0.229,0.869,0.511,1.133c0.282,0.265,0.644,0.396,1.083,0.396
				c0.235,0,0.453-0.035,0.655-0.104c0.202-0.07,0.401-0.167,0.6-0.292l0.429,0.792c-0.257,0.169-0.542,0.309-0.858,0.418
				c-0.315,0.11-0.646,0.165-0.99,0.165c-0.374,0-0.722-0.064-1.045-0.192s-0.605-0.313-0.847-0.556
				c-0.242-0.242-0.431-0.537-0.567-0.886C122.927,122.622,122.859,122.223,122.859,121.776z M126.478,121.292
				c0-0.433-0.09-0.771-0.27-1.013c-0.18-0.241-0.456-0.362-0.83-0.362c-0.323,0-0.605,0.115-0.847,0.347
				c-0.242,0.23-0.393,0.573-0.451,1.028H126.478z"/>
			<path fill="#1C425B" d="M131.153,117.277h2.42c0.396,0,0.761,0.037,1.095,0.11c0.333,0.073,0.621,0.198,0.863,0.374
				s0.433,0.405,0.572,0.688c0.14,0.282,0.209,0.633,0.209,1.051c0,0.396-0.069,0.74-0.209,1.033
				c-0.139,0.294-0.332,0.538-0.577,0.732c-0.246,0.194-0.536,0.337-0.869,0.429c-0.334,0.092-0.695,0.138-1.083,0.138h-1.144v2.64
				h-1.276V117.277z M133.473,120.808c1.056,0,1.584-0.437,1.584-1.309c0-0.455-0.132-0.769-0.396-0.94
				c-0.264-0.173-0.66-0.259-1.188-0.259h-1.045v2.508H133.473z"/>
			<path fill="#1C425B" d="M136.961,121.776c0-0.447,0.069-0.847,0.209-1.198c0.139-0.353,0.328-0.649,0.566-0.892
				s0.511-0.427,0.819-0.556c0.308-0.128,0.631-0.192,0.968-0.192c0.337,0,0.662,0.064,0.973,0.192
				c0.312,0.129,0.585,0.313,0.82,0.556c0.234,0.242,0.423,0.539,0.566,0.892c0.143,0.352,0.214,0.751,0.214,1.198
				s-0.071,0.848-0.214,1.199c-0.143,0.353-0.332,0.649-0.566,0.891c-0.235,0.242-0.508,0.426-0.82,0.551
				c-0.312,0.124-0.636,0.187-0.973,0.187c-0.337,0-0.66-0.062-0.968-0.187c-0.308-0.125-0.581-0.309-0.819-0.551
				c-0.238-0.241-0.427-0.538-0.566-0.891C137.03,122.624,136.961,122.223,136.961,121.776z M138.259,121.776
				c0,0.543,0.112,0.978,0.335,1.304s0.534,0.489,0.93,0.489s0.708-0.163,0.935-0.489c0.227-0.326,0.341-0.761,0.341-1.304
				c0-0.55-0.114-0.988-0.341-1.314c-0.228-0.326-0.539-0.489-0.935-0.489s-0.706,0.163-0.93,0.489S138.259,121.226,138.259,121.776
				z"/>
			<path fill="#1C425B" d="M143,121.776c0-0.447,0.069-0.847,0.209-1.198c0.139-0.353,0.328-0.649,0.566-0.892
				s0.511-0.427,0.819-0.556c0.308-0.128,0.631-0.192,0.968-0.192s0.662,0.064,0.974,0.192c0.312,0.129,0.585,0.313,0.819,0.556
				s0.424,0.539,0.566,0.892c0.144,0.352,0.215,0.751,0.215,1.198s-0.071,0.848-0.215,1.199c-0.143,0.353-0.332,0.649-0.566,0.891
				c-0.234,0.242-0.508,0.426-0.819,0.551c-0.312,0.124-0.637,0.187-0.974,0.187s-0.66-0.062-0.968-0.187
				c-0.309-0.125-0.581-0.309-0.819-0.551c-0.238-0.241-0.427-0.538-0.566-0.891C143.069,122.624,143,122.223,143,121.776z
				 M144.298,121.776c0,0.543,0.111,0.978,0.335,1.304s0.534,0.489,0.93,0.489c0.396,0,0.708-0.163,0.936-0.489
				c0.227-0.326,0.341-0.761,0.341-1.304c0-0.55-0.114-0.988-0.341-1.314c-0.228-0.326-0.539-0.489-0.936-0.489
				c-0.396,0-0.706,0.163-0.93,0.489S144.298,121.226,144.298,121.776z"/>
			<path fill="#1C425B" d="M149.39,116.706h1.265v6.445c0,0.154,0.029,0.263,0.088,0.325c0.06,0.062,0.121,0.093,0.188,0.093
				c0.029,0,0.057,0,0.082,0c0.026,0,0.064-0.007,0.116-0.021l0.165,0.946c-0.169,0.073-0.393,0.109-0.671,0.109
				c-0.455,0-0.774-0.136-0.957-0.407c-0.184-0.271-0.275-0.642-0.275-1.11V116.706z"/>
		</g>
	</g>
</g>
<path fill="none" stroke="#1C425B" stroke-width="0.5" stroke-miterlimit="10" d="M41.584,82.092c0,12.469,0,12.577,0,12.577
	S41.584,94.561,41.584,82.092s0-22.577,0-22.577S41.584,69.623,41.584,82.092z"/>
<path fill="#FFFFFF" stroke="#51B361" stroke-width="0.75" stroke-miterlimit="10" d="M62.149,59.515H21.02
	c-0.907,0-1.641-0.735-1.641-1.641V32.118c0-0.907,0.735-1.641,1.641-1.641h41.13c0.907,0,1.641,0.735,1.641,1.641v25.756
	C63.791,58.78,63.056,59.515,62.149,59.515z"/>
<path fill="#FFFFFF" stroke="#1C425B" stroke-width="0.5" stroke-miterlimit="10" d="M62.149,76.972H21.02
	c-0.907,0-1.641-0.735-1.641-1.641v-8.756c0-0.907,0.735-1.641,1.641-1.641h41.13c0.907,0,1.641,0.735,1.641,1.641v8.756
	C63.791,76.238,63.056,76.972,62.149,76.972z"/>
<g>
	<g>
		<path fill="#1C425B" d="M31.513,68.438h0.784l1.016,2.816l0.384,1.071h0.032l0.368-1.071l1.008-2.816h0.784v5.248h-0.632v-2.888
			c0-0.235,0.009-0.493,0.028-0.776c0.019-0.282,0.039-0.541,0.06-0.776h-0.032l-0.424,1.168l-1.008,2.744h-0.376l-1.016-2.744
			l-0.416-1.168h-0.032c0.016,0.235,0.035,0.494,0.056,0.776c0.021,0.283,0.032,0.541,0.032,0.776v2.888h-0.616V68.438z"/>
		<path fill="#1C425B" d="M36.977,71.75c0-0.326,0.049-0.615,0.148-0.868c0.099-0.254,0.23-0.469,0.396-0.645
			c0.165-0.176,0.356-0.309,0.572-0.399c0.216-0.091,0.444-0.137,0.684-0.137c0.24,0,0.468,0.046,0.684,0.137
			s0.407,0.224,0.572,0.399c0.166,0.176,0.297,0.391,0.396,0.645c0.099,0.253,0.148,0.542,0.148,0.868
			c0,0.319-0.049,0.606-0.148,0.859c-0.099,0.254-0.23,0.467-0.396,0.641c-0.165,0.173-0.356,0.305-0.572,0.396
			s-0.444,0.136-0.684,0.136c-0.24,0-0.468-0.045-0.684-0.136c-0.216-0.091-0.407-0.223-0.572-0.396
			c-0.166-0.174-0.297-0.387-0.396-0.641C37.026,72.356,36.977,72.069,36.977,71.75z M37.657,71.75c0,0.224,0.027,0.427,0.08,0.607
			c0.053,0.182,0.129,0.338,0.228,0.468c0.099,0.131,0.217,0.232,0.356,0.305c0.139,0.071,0.291,0.107,0.456,0.107
			c0.165,0,0.317-0.036,0.456-0.107c0.139-0.072,0.257-0.174,0.356-0.305c0.099-0.13,0.175-0.286,0.228-0.468
			c0.053-0.181,0.08-0.384,0.08-0.607c0-0.225-0.027-0.429-0.08-0.612c-0.053-0.185-0.129-0.343-0.228-0.477
			c-0.099-0.133-0.217-0.235-0.356-0.308s-0.291-0.108-0.456-0.108c-0.166,0-0.317,0.036-0.456,0.108s-0.257,0.175-0.356,0.308
			c-0.099,0.134-0.175,0.292-0.228,0.477C37.683,71.321,37.657,71.525,37.657,71.75z"/>
		<path fill="#1C425B" d="M41.545,69.798h0.664v2.376c0,0.368,0.057,0.633,0.172,0.796c0.115,0.162,0.3,0.244,0.556,0.244
			c0.203,0,0.381-0.053,0.536-0.156c0.155-0.104,0.325-0.271,0.512-0.5v-2.76h0.656v3.888h-0.544l-0.056-0.608h-0.024
			c-0.181,0.214-0.372,0.385-0.572,0.513s-0.436,0.191-0.708,0.191c-0.416,0-0.719-0.128-0.908-0.384
			c-0.189-0.256-0.284-0.635-0.284-1.136V69.798z"/>
		<path fill="#1C425B" d="M45.952,69.798h0.544l0.056,0.56h0.024c0.187-0.187,0.383-0.343,0.588-0.468
			c0.205-0.125,0.444-0.188,0.716-0.188c0.411,0,0.71,0.128,0.9,0.385c0.189,0.256,0.284,0.635,0.284,1.136v2.464h-0.656V71.31
			c0-0.368-0.059-0.633-0.176-0.796s-0.304-0.244-0.56-0.244c-0.203,0-0.381,0.051-0.536,0.152c-0.155,0.101-0.331,0.25-0.528,0.447
			v2.816h-0.656V69.798z"/>
		<path fill="#1C425B" d="M50.441,70.334h-0.576v-0.496l0.608-0.04l0.08-1.088h0.552v1.088h1.048v0.536h-1.048v2.159
			c0,0.24,0.044,0.426,0.132,0.557s0.244,0.195,0.468,0.195c0.069,0,0.144-0.01,0.224-0.031s0.152-0.046,0.216-0.072l0.128,0.496
			c-0.107,0.037-0.223,0.07-0.348,0.1s-0.25,0.044-0.372,0.044c-0.208,0-0.383-0.031-0.524-0.096s-0.256-0.152-0.344-0.264
			c-0.088-0.112-0.151-0.248-0.188-0.408c-0.038-0.16-0.056-0.336-0.056-0.528V70.334z"/>
	</g>
</g>
<g>
	<g>
		<path fill="#52B463" d="M43.067,42.48h1.608c0.288,0,0.552,0.026,0.792,0.08c0.24,0.054,0.444,0.14,0.612,0.26
			s0.299,0.279,0.392,0.477s0.14,0.439,0.14,0.728c0,0.277-0.047,0.518-0.14,0.72c-0.093,0.203-0.226,0.371-0.396,0.504
			c-0.171,0.134-0.375,0.233-0.612,0.301c-0.238,0.066-0.5,0.1-0.788,0.1h-0.944v2.08h-0.664V42.48z M44.595,45.104
			c0.458,0,0.798-0.087,1.02-0.26c0.221-0.174,0.332-0.447,0.332-0.82c0-0.379-0.112-0.642-0.336-0.788
			c-0.224-0.146-0.563-0.22-1.016-0.22h-0.864v2.088H44.595z"/>
		<path fill="#52B463" d="M47.131,45.792c0-0.326,0.049-0.615,0.148-0.868c0.099-0.254,0.23-0.469,0.396-0.645
			c0.165-0.176,0.356-0.309,0.572-0.399c0.216-0.091,0.444-0.137,0.684-0.137c0.24,0,0.468,0.046,0.684,0.137
			s0.407,0.224,0.572,0.399c0.166,0.176,0.297,0.391,0.396,0.645c0.099,0.253,0.148,0.542,0.148,0.868
			c0,0.319-0.049,0.606-0.148,0.859c-0.099,0.254-0.23,0.467-0.396,0.641c-0.165,0.173-0.356,0.305-0.572,0.396
			s-0.444,0.136-0.684,0.136c-0.24,0-0.468-0.045-0.684-0.136c-0.216-0.091-0.407-0.223-0.572-0.396
			c-0.166-0.174-0.297-0.387-0.396-0.641C47.181,46.399,47.131,46.112,47.131,45.792z M47.811,45.792
			c0,0.224,0.027,0.427,0.08,0.607c0.053,0.182,0.129,0.338,0.228,0.468c0.099,0.131,0.217,0.232,0.356,0.305
			c0.139,0.071,0.291,0.107,0.456,0.107c0.165,0,0.317-0.036,0.456-0.107c0.139-0.072,0.257-0.174,0.356-0.305
			c0.099-0.13,0.175-0.286,0.228-0.468c0.053-0.181,0.08-0.384,0.08-0.607c0-0.225-0.027-0.429-0.08-0.612
			c-0.053-0.185-0.129-0.343-0.228-0.477c-0.099-0.133-0.217-0.235-0.356-0.308s-0.291-0.108-0.456-0.108
			c-0.166,0-0.317,0.036-0.456,0.108s-0.257,0.175-0.356,0.308c-0.099,0.134-0.175,0.292-0.228,0.477
			C47.838,45.364,47.811,45.568,47.811,45.792z"/>
		<path fill="#52B463" d="M51.475,45.792c0-0.315,0.047-0.599,0.14-0.853c0.093-0.253,0.217-0.468,0.372-0.644
			c0.154-0.177,0.333-0.312,0.536-0.408s0.416-0.145,0.64-0.145s0.418,0.04,0.584,0.12s0.333,0.189,0.504,0.328l-0.032-0.664v-1.496
			h0.664v5.696h-0.544l-0.056-0.456h-0.024c-0.155,0.149-0.332,0.278-0.532,0.388c-0.2,0.109-0.415,0.164-0.644,0.164
			c-0.491,0-0.881-0.176-1.172-0.527C51.62,46.944,51.475,46.443,51.475,45.792z M52.155,45.784c0,0.47,0.093,0.835,0.28,1.097
			c0.187,0.261,0.451,0.392,0.792,0.392c0.181,0,0.352-0.044,0.512-0.132c0.16-0.088,0.32-0.223,0.48-0.404v-2.032
			c-0.166-0.148-0.324-0.254-0.476-0.315s-0.308-0.092-0.468-0.092c-0.154,0-0.3,0.035-0.436,0.107
			c-0.136,0.072-0.255,0.174-0.356,0.305c-0.101,0.13-0.181,0.286-0.24,0.468C52.184,45.357,52.155,45.56,52.155,45.784z"/>
	</g>
</g>
<g>
	<circle fill="#52B463" cx="33.923" cy="45.685" r="5.182"/>
	<g>
		<path fill="#FFFFFF" d="M32.751,43.205h1.652c0.271,0,0.52,0.025,0.748,0.075c0.228,0.05,0.424,0.135,0.589,0.255
			s0.295,0.277,0.391,0.469c0.095,0.193,0.143,0.432,0.143,0.717c0,0.271-0.048,0.506-0.143,0.706c-0.095,0.2-0.227,0.367-0.395,0.5
			c-0.167,0.132-0.365,0.23-0.593,0.292c-0.228,0.063-0.474,0.094-0.74,0.094h-0.781v1.802h-0.871V43.205z M34.336,45.616
			c0.721,0,1.082-0.298,1.082-0.894c0-0.311-0.09-0.524-0.271-0.642s-0.451-0.176-0.811-0.176h-0.713v1.712H34.336z"/>
	</g>
</g>
<g>
	<path fill="none" stroke="#1C425B" stroke-width="0.5" stroke-miterlimit="10" d="M101.584,82.092c0,12.469,0,12.577,0,12.577
		S101.584,94.561,101.584,82.092s0-22.577,0-22.577S101.584,69.623,101.584,82.092z"/>
	<path fill="none" stroke="#51B361" stroke-width="0.75" stroke-miterlimit="10" d="M122.149,59.515H81.02
		c-0.907,0-1.641-0.735-1.641-1.641V32.118c0-0.907,0.735-1.641,1.641-1.641h41.13c0.907,0,1.641,0.735,1.641,1.641v25.756
		C123.791,58.78,123.056,59.515,122.149,59.515z"/>
	<path fill="#FFFFFF" stroke="#1C425B" stroke-width="0.5" stroke-miterlimit="10" d="M122.149,76.972H81.02
		c-0.907,0-1.641-0.735-1.641-1.641v-8.756c0-0.907,0.735-1.641,1.641-1.641h41.13c0.907,0,1.641,0.735,1.641,1.641v8.756
		C123.791,76.238,123.056,76.972,122.149,76.972z"/>
	<g>
		<g>
			<path fill="#1C425B" d="M91.513,68.438h0.784l1.016,2.816l0.384,1.071h0.032l0.368-1.071l1.008-2.816h0.784v5.248h-0.632v-2.888
				c0-0.235,0.009-0.493,0.028-0.776c0.019-0.282,0.039-0.541,0.06-0.776h-0.032l-0.424,1.168l-1.008,2.744h-0.376l-1.016-2.744
				l-0.416-1.168h-0.032c0.016,0.235,0.035,0.494,0.056,0.776c0.021,0.283,0.032,0.541,0.032,0.776v2.888h-0.616V68.438z"/>
			<path fill="#1C425B" d="M96.977,71.75c0-0.326,0.049-0.615,0.148-0.868c0.099-0.254,0.23-0.469,0.396-0.645
				c0.165-0.176,0.356-0.309,0.572-0.399c0.216-0.091,0.444-0.137,0.684-0.137c0.24,0,0.468,0.046,0.684,0.137
				s0.407,0.224,0.572,0.399c0.166,0.176,0.297,0.391,0.396,0.645c0.099,0.253,0.148,0.542,0.148,0.868
				c0,0.319-0.049,0.606-0.148,0.859c-0.099,0.254-0.23,0.467-0.396,0.641c-0.165,0.173-0.356,0.305-0.572,0.396
				s-0.444,0.136-0.684,0.136c-0.24,0-0.468-0.045-0.684-0.136c-0.216-0.091-0.407-0.223-0.572-0.396
				c-0.166-0.174-0.297-0.387-0.396-0.641C97.026,72.356,96.977,72.069,96.977,71.75z M97.657,71.75c0,0.224,0.027,0.427,0.08,0.607
				c0.053,0.182,0.129,0.338,0.228,0.468c0.099,0.131,0.217,0.232,0.356,0.305c0.139,0.071,0.291,0.107,0.456,0.107
				c0.165,0,0.317-0.036,0.456-0.107c0.139-0.072,0.257-0.174,0.356-0.305c0.099-0.13,0.175-0.286,0.228-0.468
				c0.053-0.181,0.08-0.384,0.08-0.607c0-0.225-0.027-0.429-0.08-0.612c-0.053-0.185-0.129-0.343-0.228-0.477
				c-0.099-0.133-0.217-0.235-0.356-0.308s-0.291-0.108-0.456-0.108c-0.166,0-0.317,0.036-0.456,0.108s-0.257,0.175-0.356,0.308
				c-0.099,0.134-0.175,0.292-0.228,0.477C97.683,71.321,97.657,71.525,97.657,71.75z"/>
			<path fill="#1C425B" d="M101.545,69.798h0.664v2.376c0,0.368,0.057,0.633,0.172,0.796c0.115,0.162,0.3,0.244,0.556,0.244
				c0.203,0,0.381-0.053,0.536-0.156c0.155-0.104,0.325-0.271,0.512-0.5v-2.76h0.656v3.888h-0.544l-0.056-0.608h-0.024
				c-0.181,0.214-0.372,0.385-0.572,0.513s-0.436,0.191-0.708,0.191c-0.416,0-0.719-0.128-0.908-0.384
				c-0.189-0.256-0.284-0.635-0.284-1.136V69.798z"/>
			<path fill="#1C425B" d="M105.952,69.798h0.544l0.056,0.56h0.024c0.187-0.187,0.383-0.343,0.588-0.468
				c0.205-0.125,0.444-0.188,0.716-0.188c0.411,0,0.71,0.128,0.9,0.385c0.189,0.256,0.284,0.635,0.284,1.136v2.464h-0.656V71.31
				c0-0.368-0.059-0.633-0.176-0.796s-0.304-0.244-0.56-0.244c-0.203,0-0.381,0.051-0.536,0.152
				c-0.155,0.101-0.331,0.25-0.528,0.447v2.816h-0.656V69.798z"/>
			<path fill="#1C425B" d="M110.441,70.334h-0.576v-0.496l0.608-0.04l0.08-1.088h0.552v1.088h1.048v0.536h-1.048v2.159
				c0,0.24,0.044,0.426,0.132,0.557s0.244,0.195,0.468,0.195c0.069,0,0.144-0.01,0.224-0.031s0.152-0.046,0.216-0.072l0.128,0.496
				c-0.107,0.037-0.223,0.07-0.348,0.1s-0.25,0.044-0.372,0.044c-0.208,0-0.383-0.031-0.524-0.096s-0.256-0.152-0.344-0.264
				c-0.088-0.112-0.151-0.248-0.188-0.408c-0.038-0.16-0.056-0.336-0.056-0.528V70.334z"/>
		</g>
	</g>
	<g>
		<g>
			<path fill="#52B463" d="M103.067,42.48h1.608c0.288,0,0.552,0.026,0.792,0.08c0.24,0.054,0.444,0.14,0.612,0.26
				s0.299,0.279,0.392,0.477s0.14,0.439,0.14,0.728c0,0.277-0.047,0.518-0.14,0.72c-0.093,0.203-0.226,0.371-0.396,0.504
				c-0.171,0.134-0.375,0.233-0.612,0.301c-0.238,0.066-0.5,0.1-0.788,0.1h-0.944v2.08h-0.664V42.48z M104.595,45.104
				c0.458,0,0.798-0.087,1.02-0.26c0.221-0.174,0.332-0.447,0.332-0.82c0-0.379-0.112-0.642-0.336-0.788
				c-0.224-0.146-0.563-0.22-1.016-0.22h-0.864v2.088H104.595z"/>
			<path fill="#52B463" d="M107.131,45.792c0-0.326,0.049-0.615,0.148-0.868c0.099-0.254,0.23-0.469,0.396-0.645
				c0.165-0.176,0.356-0.309,0.572-0.399c0.216-0.091,0.444-0.137,0.684-0.137c0.24,0,0.468,0.046,0.684,0.137
				s0.407,0.224,0.572,0.399c0.166,0.176,0.297,0.391,0.396,0.645c0.099,0.253,0.148,0.542,0.148,0.868
				c0,0.319-0.049,0.606-0.148,0.859c-0.099,0.254-0.23,0.467-0.396,0.641c-0.165,0.173-0.356,0.305-0.572,0.396
				s-0.444,0.136-0.684,0.136c-0.24,0-0.468-0.045-0.684-0.136c-0.216-0.091-0.407-0.223-0.572-0.396
				c-0.166-0.174-0.297-0.387-0.396-0.641C107.181,46.399,107.131,46.112,107.131,45.792z M107.811,45.792
				c0,0.224,0.027,0.427,0.08,0.607c0.053,0.182,0.129,0.338,0.228,0.468c0.099,0.131,0.217,0.232,0.356,0.305
				c0.139,0.071,0.291,0.107,0.456,0.107c0.165,0,0.317-0.036,0.456-0.107c0.139-0.072,0.257-0.174,0.356-0.305
				c0.099-0.13,0.175-0.286,0.228-0.468c0.053-0.181,0.08-0.384,0.08-0.607c0-0.225-0.027-0.429-0.08-0.612
				c-0.053-0.185-0.129-0.343-0.228-0.477c-0.099-0.133-0.217-0.235-0.356-0.308s-0.291-0.108-0.456-0.108
				c-0.166,0-0.317,0.036-0.456,0.108s-0.257,0.175-0.356,0.308c-0.099,0.134-0.175,0.292-0.228,0.477
				C107.838,45.364,107.811,45.568,107.811,45.792z"/>
			<path fill="#52B463" d="M111.475,45.792c0-0.315,0.047-0.599,0.14-0.853c0.093-0.253,0.217-0.468,0.372-0.644
				c0.154-0.177,0.333-0.312,0.536-0.408s0.416-0.145,0.64-0.145s0.418,0.04,0.584,0.12s0.333,0.189,0.504,0.328l-0.032-0.664
				v-1.496h0.664v5.696h-0.544l-0.056-0.456h-0.024c-0.155,0.149-0.332,0.278-0.532,0.388c-0.2,0.109-0.415,0.164-0.644,0.164
				c-0.491,0-0.881-0.176-1.172-0.527C111.62,46.944,111.475,46.443,111.475,45.792z M112.155,45.784c0,0.47,0.093,0.835,0.28,1.097
				c0.187,0.261,0.451,0.392,0.792,0.392c0.181,0,0.352-0.044,0.512-0.132c0.16-0.088,0.32-0.223,0.48-0.404v-2.032
				c-0.166-0.148-0.324-0.254-0.476-0.315s-0.308-0.092-0.468-0.092c-0.154,0-0.3,0.035-0.436,0.107
				c-0.136,0.072-0.255,0.174-0.356,0.305c-0.101,0.13-0.181,0.286-0.24,0.468C112.184,45.357,112.155,45.56,112.155,45.784z"/>
		</g>
	</g>
	<g>
		<circle fill="#52B463" cx="93.923" cy="45.685" r="5.182"/>
		<g>
			<path fill="#FFFFFF" d="M92.751,43.205h1.652c0.271,0,0.52,0.025,0.748,0.075c0.228,0.05,0.424,0.135,0.589,0.255
				s0.295,0.277,0.391,0.469c0.095,0.193,0.143,0.432,0.143,0.717c0,0.271-0.048,0.506-0.143,0.706
				c-0.095,0.2-0.227,0.367-0.395,0.5c-0.167,0.132-0.365,0.23-0.593,0.292c-0.228,0.063-0.474,0.094-0.74,0.094h-0.781v1.802
				h-0.871V43.205z M94.336,45.616c0.721,0,1.082-0.298,1.082-0.894c0-0.311-0.09-0.524-0.271-0.642s-0.451-0.176-0.811-0.176
				h-0.713v1.712H94.336z"/>
		</g>
	</g>
</g>
<g>
	<path fill="none" stroke="#1C425B" stroke-width="0.5" stroke-miterlimit="10" d="M161.584,82.092c0,12.469,0,12.577,0,12.577
		S161.584,94.561,161.584,82.092s0-22.577,0-22.577S161.584,69.623,161.584,82.092z"/>
	<path fill="#FFFFFF" stroke="#51B361" stroke-width="0.75" stroke-miterlimit="10" d="M182.149,59.515h-41.13
		c-0.907,0-1.641-0.735-1.641-1.641V32.118c0-0.907,0.735-1.641,1.641-1.641h41.13c0.907,0,1.641,0.735,1.641,1.641v25.756
		C183.791,58.78,183.056,59.515,182.149,59.515z"/>
	<path fill="#FFFFFF" stroke="#1C425B" stroke-width="0.5" stroke-miterlimit="10" d="M182.149,76.972h-41.13
		c-0.907,0-1.641-0.735-1.641-1.641v-8.756c0-0.907,0.735-1.641,1.641-1.641h41.13c0.907,0,1.641,0.735,1.641,1.641v8.756
		C183.791,76.238,183.056,76.972,182.149,76.972z"/>
	<g>
		<g>
			<path fill="#1C425B" d="M151.513,68.438h0.784l1.016,2.816l0.384,1.071h0.032l0.368-1.071l1.008-2.816h0.784v5.248h-0.632v-2.888
				c0-0.235,0.009-0.493,0.028-0.776c0.019-0.282,0.038-0.541,0.06-0.776h-0.032l-0.424,1.168l-1.008,2.744h-0.376l-1.017-2.744
				l-0.416-1.168h-0.031c0.016,0.235,0.034,0.494,0.056,0.776c0.021,0.283,0.032,0.541,0.032,0.776v2.888h-0.616V68.438z"/>
			<path fill="#1C425B" d="M156.976,71.75c0-0.326,0.05-0.615,0.148-0.868c0.099-0.254,0.23-0.469,0.396-0.645
				s0.356-0.309,0.572-0.399s0.444-0.137,0.684-0.137c0.24,0,0.469,0.046,0.685,0.137s0.406,0.224,0.571,0.399
				c0.166,0.176,0.298,0.391,0.396,0.645c0.099,0.253,0.147,0.542,0.147,0.868c0,0.319-0.049,0.606-0.147,0.859
				c-0.099,0.254-0.23,0.467-0.396,0.641c-0.165,0.173-0.355,0.305-0.571,0.396s-0.444,0.136-0.685,0.136
				c-0.239,0-0.468-0.045-0.684-0.136s-0.407-0.223-0.572-0.396c-0.165-0.174-0.297-0.387-0.396-0.641
				C157.026,72.356,156.976,72.069,156.976,71.75z M157.656,71.75c0,0.224,0.027,0.427,0.08,0.607
				c0.054,0.182,0.13,0.338,0.229,0.468c0.099,0.131,0.217,0.232,0.355,0.305c0.139,0.071,0.291,0.107,0.456,0.107
				s0.317-0.036,0.456-0.107c0.139-0.072,0.258-0.174,0.356-0.305c0.099-0.13,0.175-0.286,0.228-0.468
				c0.054-0.181,0.08-0.384,0.08-0.607c0-0.225-0.026-0.429-0.08-0.612c-0.053-0.185-0.129-0.343-0.228-0.477
				c-0.099-0.133-0.218-0.235-0.356-0.308s-0.291-0.108-0.456-0.108s-0.317,0.036-0.456,0.108s-0.257,0.175-0.355,0.308
				c-0.099,0.134-0.175,0.292-0.229,0.477C157.683,71.321,157.656,71.525,157.656,71.75z"/>
			<path fill="#1C425B" d="M161.545,69.798h0.664v2.376c0,0.368,0.057,0.633,0.172,0.796c0.114,0.162,0.3,0.244,0.556,0.244
				c0.203,0,0.381-0.053,0.536-0.156c0.154-0.104,0.325-0.271,0.512-0.5v-2.76h0.656v3.888h-0.544l-0.056-0.608h-0.024
				c-0.182,0.214-0.372,0.385-0.572,0.513s-0.436,0.191-0.708,0.191c-0.416,0-0.719-0.128-0.908-0.384
				c-0.188-0.256-0.283-0.635-0.283-1.136V69.798z"/>
			<path fill="#1C425B" d="M165.952,69.798h0.545l0.056,0.56h0.023c0.188-0.187,0.383-0.343,0.589-0.468
				c0.205-0.125,0.443-0.188,0.716-0.188c0.41,0,0.71,0.128,0.899,0.385c0.189,0.256,0.284,0.635,0.284,1.136v2.464h-0.656V71.31
				c0-0.368-0.059-0.633-0.176-0.796s-0.304-0.244-0.56-0.244c-0.203,0-0.382,0.051-0.536,0.152
				c-0.155,0.101-0.331,0.25-0.528,0.447v2.816h-0.656V69.798z"/>
			<path fill="#1C425B" d="M170.44,70.334h-0.576v-0.496l0.608-0.04l0.08-1.088h0.552v1.088h1.048v0.536h-1.048v2.159
				c0,0.24,0.044,0.426,0.132,0.557s0.244,0.195,0.469,0.195c0.068,0,0.144-0.01,0.224-0.031s0.152-0.046,0.216-0.072l0.128,0.496
				c-0.106,0.037-0.223,0.07-0.348,0.1c-0.126,0.029-0.25,0.044-0.372,0.044c-0.208,0-0.383-0.031-0.524-0.096
				c-0.141-0.064-0.256-0.152-0.344-0.264c-0.088-0.112-0.15-0.248-0.188-0.408c-0.038-0.16-0.057-0.336-0.057-0.528V70.334z"/>
		</g>
	</g>
	<g>
		<g>
			<path fill="#52B463" d="M163.067,42.48h1.607c0.288,0,0.552,0.026,0.792,0.08s0.444,0.14,0.612,0.26s0.299,0.279,0.392,0.477
				c0.094,0.197,0.141,0.439,0.141,0.728c0,0.277-0.047,0.518-0.141,0.72c-0.093,0.203-0.226,0.371-0.396,0.504
				c-0.171,0.134-0.375,0.233-0.612,0.301c-0.237,0.066-0.5,0.1-0.788,0.1h-0.944v2.08h-0.663V42.48z M164.595,45.104
				c0.459,0,0.799-0.087,1.021-0.26c0.221-0.174,0.332-0.447,0.332-0.82c0-0.379-0.112-0.642-0.336-0.788
				c-0.225-0.146-0.563-0.22-1.017-0.22h-0.864v2.088H164.595z"/>
			<path fill="#52B463" d="M167.131,45.792c0-0.326,0.05-0.615,0.148-0.868c0.099-0.254,0.23-0.469,0.396-0.645
				s0.356-0.309,0.572-0.399s0.444-0.137,0.684-0.137c0.24,0,0.469,0.046,0.685,0.137s0.406,0.224,0.571,0.399
				c0.166,0.176,0.298,0.391,0.396,0.645c0.099,0.253,0.147,0.542,0.147,0.868c0,0.319-0.049,0.606-0.147,0.859
				c-0.099,0.254-0.23,0.467-0.396,0.641c-0.165,0.173-0.355,0.305-0.571,0.396s-0.444,0.136-0.685,0.136
				c-0.239,0-0.468-0.045-0.684-0.136s-0.407-0.223-0.572-0.396c-0.165-0.174-0.297-0.387-0.396-0.641
				C167.181,46.399,167.131,46.112,167.131,45.792z M167.81,45.792c0,0.224,0.027,0.427,0.08,0.607
				c0.054,0.182,0.13,0.338,0.229,0.468c0.099,0.131,0.217,0.232,0.355,0.305c0.139,0.071,0.291,0.107,0.456,0.107
				s0.317-0.036,0.456-0.107c0.139-0.072,0.258-0.174,0.356-0.305c0.099-0.13,0.175-0.286,0.228-0.468
				c0.054-0.181,0.08-0.384,0.08-0.607c0-0.225-0.026-0.429-0.08-0.612c-0.053-0.185-0.129-0.343-0.228-0.477
				c-0.099-0.133-0.218-0.235-0.356-0.308s-0.291-0.108-0.456-0.108s-0.317,0.036-0.456,0.108s-0.257,0.175-0.355,0.308
				c-0.099,0.134-0.175,0.292-0.229,0.477C167.838,45.364,167.81,45.568,167.81,45.792z"/>
			<path fill="#52B463" d="M171.474,45.792c0-0.315,0.047-0.599,0.141-0.853c0.093-0.253,0.217-0.468,0.372-0.644
				c0.154-0.177,0.333-0.312,0.535-0.408c0.203-0.096,0.416-0.145,0.641-0.145c0.224,0,0.418,0.04,0.584,0.12
				c0.165,0.08,0.333,0.189,0.504,0.328l-0.032-0.664v-1.496h0.664v5.696h-0.544l-0.056-0.456h-0.024
				c-0.154,0.149-0.332,0.278-0.532,0.388c-0.199,0.109-0.414,0.164-0.644,0.164c-0.491,0-0.882-0.176-1.172-0.527
				C171.62,46.944,171.474,46.443,171.474,45.792z M172.155,45.784c0,0.47,0.093,0.835,0.279,1.097
				c0.187,0.261,0.451,0.392,0.792,0.392c0.182,0,0.353-0.044,0.513-0.132c0.159-0.088,0.319-0.223,0.479-0.404v-2.032
				c-0.165-0.148-0.324-0.254-0.476-0.315c-0.152-0.062-0.309-0.092-0.469-0.092c-0.154,0-0.3,0.035-0.436,0.107
				s-0.255,0.174-0.356,0.305c-0.101,0.13-0.181,0.286-0.239,0.468C172.184,45.357,172.155,45.56,172.155,45.784z"/>
		</g>
	</g>
	<g>
		<circle fill="#52B463" cx="153.923" cy="45.685" r="5.182"/>
		<g>
			<path fill="#FFFFFF" d="M152.752,43.205h1.651c0.271,0,0.52,0.025,0.748,0.075c0.228,0.05,0.424,0.135,0.589,0.255
				s0.296,0.277,0.391,0.469c0.095,0.193,0.143,0.432,0.143,0.717c0,0.271-0.048,0.506-0.143,0.706s-0.227,0.367-0.395,0.5
				c-0.167,0.132-0.365,0.23-0.593,0.292c-0.229,0.063-0.475,0.094-0.74,0.094h-0.78v1.802h-0.871V43.205z M154.336,45.616
				c0.721,0,1.082-0.298,1.082-0.894c0-0.311-0.091-0.524-0.271-0.642c-0.181-0.118-0.451-0.176-0.812-0.176h-0.713v1.712H154.336z"
				/>
		</g>
	</g>
</g>
<g>
	<g>
		<path opacity="0.45" fill="#F5F5F5" d="M193.926,169.159h-0.216c0-2.932-5.395-5.309-12.051-5.309s-12.051,2.377-12.051,5.309
			v17.603h0.222c1.066,2.452,5.953,4.306,11.829,4.306s10.764-1.854,11.829-4.306h0.438V169.159z"/>
		<g>
			<path fill="#1C425B" d="M181.767,164.174c-6.288,0-11.6,2.199-11.6,4.799c0,2.601,5.312,4.799,11.6,4.799
				c6.287,0,11.601-2.198,11.601-4.799C193.368,166.373,188.054,164.174,181.767,164.174 M181.767,174.653
				c-6.999,0-12.48-2.494-12.48-5.679c0-3.184,5.481-5.679,12.48-5.679c6.999,0,12.48,2.495,12.48,5.679
				C194.247,172.158,188.765,174.653,181.767,174.653"/>
			<path fill="#1C425B" d="M181.767,180.24c-6.327,0-11.569-2.105-12.195-4.897l-0.049-0.214l0.43-0.097l0.048,0.215
				c0.572,2.553,5.74,4.553,11.766,4.553c6.026,0,11.195-2.001,11.766-4.553l0.048-0.215l0.43,0.097l-0.049,0.214
				C193.338,178.135,188.095,180.24,181.767,180.24"/>
			<path fill="#1C425B" d="M181.767,186.004c-6.327,0-11.57-2.106-12.195-4.897c-0.027-0.118,0.047-0.236,0.166-0.262
				c0.126-0.026,0.235,0.048,0.263,0.165c0.572,2.554,5.74,4.553,11.766,4.553c6.027,0,11.195-2,11.766-4.553
				c0.027-0.117,0.144-0.187,0.263-0.165c0.119,0.026,0.194,0.143,0.166,0.262C193.338,183.898,188.095,186.004,181.767,186.004"/>
			<path fill="#1C425B" d="M181.767,191.623c-6.427,0-11.762-2.178-12.409-5.068l-0.07-0.783l-0.001-16.38h0.88v16.344l0.059,0.686
				c0.542,2.396,5.615,4.321,11.542,4.321c5.927,0,11.001-1.925,11.551-4.381l0.05-0.663v-16.308h0.879v16.344l-0.061,0.759
				C193.53,189.444,188.195,191.623,181.767,191.623"/>
			<path fill="#1C425B" d="M191.723,175.295c0,0.422-0.343,0.765-0.765,0.765c-0.422,0-0.765-0.343-0.765-0.765
				s0.343-0.765,0.765-0.765C191.38,174.529,191.723,174.872,191.723,175.295"/>
			<path fill="#1C425B" d="M191.723,181.059c0,0.422-0.343,0.765-0.765,0.765c-0.422,0-0.765-0.343-0.765-0.765
				s0.343-0.765,0.765-0.765C191.38,180.294,191.723,180.636,191.723,181.059"/>
			<path fill="#1C425B" d="M191.723,186.244c0,0.422-0.343,0.765-0.765,0.765c-0.422,0-0.765-0.343-0.765-0.765
				c0-0.422,0.343-0.765,0.765-0.765C191.38,185.479,191.723,185.822,191.723,186.244"/>
		</g>
	</g>
	<path fill="none" stroke="#1C425B" stroke-width="0.5" stroke-miterlimit="10" d="M181.767,157.648c0,6.148,0,6.202,0,6.202
		S181.767,163.797,181.767,157.648c0-6.148,0-11.133,0-11.133S181.767,151.5,181.767,157.648z"/>
	<g>
		<path opacity="0.45" fill="#F5F5F5" d="M161.926,169.159h-0.216c0-2.932-5.395-5.309-12.051-5.309s-12.051,2.377-12.051,5.309
			v17.603h0.222c1.066,2.452,5.953,4.306,11.829,4.306s10.764-1.854,11.829-4.306h0.438V169.159z"/>
		<g>
			<path fill="#1C425B" d="M149.767,164.174c-6.288,0-11.6,2.199-11.6,4.799c0,2.601,5.312,4.799,11.6,4.799
				c6.287,0,11.601-2.198,11.601-4.799C161.368,166.373,156.054,164.174,149.767,164.174 M149.767,174.653
				c-6.999,0-12.48-2.494-12.48-5.679c0-3.184,5.481-5.679,12.48-5.679c6.999,0,12.48,2.495,12.48,5.679
				C162.247,172.158,156.765,174.653,149.767,174.653"/>
			<path fill="#1C425B" d="M149.767,180.24c-6.327,0-11.569-2.105-12.195-4.897l-0.049-0.214l0.43-0.097l0.048,0.215
				c0.572,2.553,5.74,4.553,11.766,4.553c6.026,0,11.195-2.001,11.766-4.553l0.048-0.215l0.43,0.097l-0.049,0.214
				C161.338,178.135,156.095,180.24,149.767,180.24"/>
			<path fill="#1C425B" d="M149.767,186.004c-6.327,0-11.57-2.106-12.195-4.897c-0.027-0.118,0.047-0.236,0.166-0.262
				c0.126-0.026,0.235,0.048,0.263,0.165c0.572,2.554,5.74,4.553,11.766,4.553c6.027,0,11.195-2,11.766-4.553
				c0.027-0.117,0.144-0.187,0.263-0.165c0.119,0.026,0.194,0.143,0.166,0.262C161.338,183.898,156.095,186.004,149.767,186.004"/>
			<path fill="#1C425B" d="M149.767,191.623c-6.427,0-11.762-2.178-12.409-5.068l-0.07-0.783l-0.001-16.38h0.88v16.344l0.059,0.686
				c0.542,2.396,5.615,4.321,11.542,4.321c5.927,0,11.001-1.925,11.551-4.381l0.05-0.663v-16.308h0.879v16.344l-0.061,0.759
				C161.53,189.444,156.195,191.623,149.767,191.623"/>
			<path fill="#1C425B" d="M159.723,175.295c0,0.422-0.343,0.765-0.765,0.765c-0.422,0-0.765-0.343-0.765-0.765
				s0.343-0.765,0.765-0.765C159.38,174.529,159.723,174.872,159.723,175.295"/>
			<path fill="#1C425B" d="M159.723,181.059c0,0.422-0.343,0.765-0.765,0.765c-0.422,0-0.765-0.343-0.765-0.765
				s0.343-0.765,0.765-0.765C159.38,180.294,159.723,180.636,159.723,181.059"/>
			<path fill="#1C425B" d="M159.723,186.244c0,0.422-0.343,0.765-0.765,0.765c-0.422,0-0.765-0.343-0.765-0.765
				c0-0.422,0.343-0.765,0.765-0.765C159.38,185.479,159.723,185.822,159.723,186.244"/>
		</g>
	</g>
	<g>
		<path opacity="0.45" fill="#F5F5F5" d="M129.926,169.159h-0.216c0-2.932-5.395-5.309-12.051-5.309s-12.051,2.377-12.051,5.309
			v17.603h0.222c1.066,2.452,5.953,4.306,11.829,4.306s10.764-1.854,11.829-4.306h0.438V169.159z"/>
		<g>
			<path fill="#1C425B" d="M117.767,164.174c-6.288,0-11.6,2.199-11.6,4.799c0,2.601,5.312,4.799,11.6,4.799
				c6.287,0,11.601-2.198,11.601-4.799C129.368,166.373,124.054,164.174,117.767,164.174 M117.767,174.653
				c-6.999,0-12.48-2.494-12.48-5.679c0-3.184,5.481-5.679,12.48-5.679c6.999,0,12.48,2.495,12.48,5.679
				C130.247,172.158,124.765,174.653,117.767,174.653"/>
			<path fill="#1C425B" d="M117.767,180.24c-6.327,0-11.569-2.105-12.195-4.897l-0.049-0.214l0.43-0.097l0.048,0.215
				c0.572,2.553,5.74,4.553,11.766,4.553c6.026,0,11.195-2.001,11.766-4.553l0.048-0.215l0.43,0.097l-0.049,0.214
				C129.338,178.135,124.095,180.24,117.767,180.24"/>
			<path fill="#1C425B" d="M117.767,186.004c-6.327,0-11.57-2.106-12.195-4.897c-0.027-0.118,0.047-0.236,0.166-0.262
				c0.126-0.026,0.235,0.048,0.263,0.165c0.572,2.554,5.74,4.553,11.766,4.553c6.027,0,11.195-2,11.766-4.553
				c0.027-0.117,0.144-0.187,0.263-0.165c0.119,0.026,0.194,0.143,0.166,0.262C129.338,183.898,124.095,186.004,117.767,186.004"/>
			<path fill="#1C425B" d="M117.767,191.623c-6.427,0-11.762-2.178-12.409-5.068l-0.07-0.783l-0.001-16.38h0.88v16.344l0.059,0.686
				c0.542,2.396,5.615,4.321,11.542,4.321c5.927,0,11.001-1.925,11.551-4.381l0.05-0.663v-16.308h0.879v16.344l-0.061,0.759
				C129.53,189.444,124.195,191.623,117.767,191.623"/>
			<path fill="#1C425B" d="M127.723,175.295c0,0.422-0.343,0.765-0.765,0.765s-0.765-0.343-0.765-0.765s0.343-0.765,0.765-0.765
				S127.723,174.872,127.723,175.295"/>
			<path fill="#1C425B" d="M127.723,181.059c0,0.422-0.343,0.765-0.765,0.765s-0.765-0.343-0.765-0.765s0.343-0.765,0.765-0.765
				S127.723,180.636,127.723,181.059"/>
			<path fill="#1C425B" d="M127.723,186.244c0,0.422-0.343,0.765-0.765,0.765s-0.765-0.343-0.765-0.765
				c0-0.422,0.343-0.765,0.765-0.765S127.723,185.822,127.723,186.244"/>
		</g>
	</g>
	<g>
		<path opacity="0.45" fill="#F5F5F5" d="M97.926,169.159h-0.216c0-2.932-5.395-5.309-12.051-5.309s-12.051,2.377-12.051,5.309
			v17.603h0.222c1.066,2.452,5.953,4.306,11.829,4.306s10.764-1.854,11.829-4.306h0.438V169.159z"/>
		<g>
			<path fill="#1C425B" d="M85.767,164.174c-6.288,0-11.6,2.199-11.6,4.799c0,2.601,5.312,4.799,11.6,4.799
				c6.287,0,11.601-2.198,11.601-4.799C97.368,166.373,92.054,164.174,85.767,164.174 M85.767,174.653
				c-6.999,0-12.48-2.494-12.48-5.679c0-3.184,5.481-5.679,12.48-5.679c6.999,0,12.48,2.495,12.48,5.679
				C98.247,172.158,92.765,174.653,85.767,174.653"/>
			<path fill="#1C425B" d="M85.767,180.24c-6.327,0-11.569-2.105-12.195-4.897l-0.049-0.214l0.43-0.097l0.048,0.215
				c0.572,2.553,5.74,4.553,11.766,4.553c6.026,0,11.195-2.001,11.766-4.553l0.048-0.215l0.43,0.097l-0.049,0.214
				C97.338,178.135,92.095,180.24,85.767,180.24"/>
			<path fill="#1C425B" d="M85.767,186.004c-6.327,0-11.57-2.106-12.195-4.897c-0.027-0.118,0.047-0.236,0.166-0.262
				c0.126-0.026,0.235,0.048,0.263,0.165c0.572,2.554,5.74,4.553,11.766,4.553c6.027,0,11.195-2,11.766-4.553
				c0.027-0.117,0.144-0.187,0.263-0.165c0.119,0.026,0.194,0.143,0.166,0.262C97.338,183.898,92.095,186.004,85.767,186.004"/>
			<path fill="#1C425B" d="M85.767,191.623c-6.427,0-11.762-2.178-12.409-5.068l-0.07-0.783l-0.001-16.38h0.88v16.344l0.059,0.686
				c0.542,2.396,5.615,4.321,11.542,4.321c5.927,0,11.001-1.925,11.551-4.381l0.05-0.663v-16.308h0.879v16.344l-0.061,0.759
				C97.53,189.444,92.195,191.623,85.767,191.623"/>
			<path fill="#1C425B" d="M95.723,175.295c0,0.422-0.343,0.765-0.765,0.765s-0.765-0.343-0.765-0.765s0.343-0.765,0.765-0.765
				S95.723,174.872,95.723,175.295"/>
			<path fill="#1C425B" d="M95.723,181.059c0,0.422-0.343,0.765-0.765,0.765s-0.765-0.343-0.765-0.765s0.343-0.765,0.765-0.765
				S95.723,180.636,95.723,181.059"/>
			<path fill="#1C425B" d="M95.723,186.244c0,0.422-0.343,0.765-0.765,0.765s-0.765-0.343-0.765-0.765
				c0-0.422,0.343-0.765,0.765-0.765S95.723,185.822,95.723,186.244"/>
		</g>
	</g>
	<g>
		<path opacity="0.45" fill="#F5F5F5" d="M65.926,169.159h-0.216c0-2.932-5.395-5.309-12.051-5.309s-12.051,2.377-12.051,5.309
			v17.603h0.222c1.066,2.452,5.953,4.306,11.829,4.306s10.764-1.854,11.829-4.306h0.438V169.159z"/>
		<g>
			<path fill="#1C425B" d="M53.767,164.174c-6.288,0-11.6,2.199-11.6,4.799c0,2.601,5.312,4.799,11.6,4.799
				c6.287,0,11.601-2.198,11.601-4.799C65.368,166.373,60.054,164.174,53.767,164.174 M53.767,174.653
				c-6.999,0-12.48-2.494-12.48-5.679c0-3.184,5.481-5.679,12.48-5.679c6.999,0,12.48,2.495,12.48,5.679
				C66.247,172.158,60.765,174.653,53.767,174.653"/>
			<path fill="#1C425B" d="M53.767,180.24c-6.327,0-11.569-2.105-12.195-4.897l-0.049-0.214l0.43-0.097l0.048,0.215
				c0.572,2.553,5.74,4.553,11.766,4.553c6.026,0,11.195-2.001,11.766-4.553l0.048-0.215l0.43,0.097l-0.049,0.214
				C65.338,178.135,60.095,180.24,53.767,180.24"/>
			<path fill="#1C425B" d="M53.767,186.004c-6.327,0-11.57-2.106-12.195-4.897c-0.027-0.118,0.047-0.236,0.166-0.262
				c0.126-0.026,0.235,0.048,0.263,0.165c0.572,2.554,5.74,4.553,11.766,4.553c6.027,0,11.195-2,11.766-4.553
				c0.027-0.117,0.144-0.187,0.263-0.165c0.119,0.026,0.194,0.143,0.166,0.262C65.338,183.898,60.095,186.004,53.767,186.004"/>
			<path fill="#1C425B" d="M53.767,191.623c-6.427,0-11.762-2.178-12.409-5.068l-0.07-0.783l-0.001-16.38h0.88v16.344l0.059,0.686
				c0.542,2.396,5.615,4.321,11.542,4.321c5.927,0,11.001-1.925,11.551-4.381l0.05-0.663v-16.308h0.879v16.344l-0.061,0.759
				C65.53,189.444,60.195,191.623,53.767,191.623"/>
			<path fill="#1C425B" d="M63.723,175.295c0,0.422-0.343,0.765-0.765,0.765c-0.422,0-0.765-0.343-0.765-0.765
				s0.343-0.765,0.765-0.765C63.38,174.529,63.723,174.872,63.723,175.295"/>
			<path fill="#1C425B" d="M63.723,181.059c0,0.422-0.343,0.765-0.765,0.765c-0.422,0-0.765-0.343-0.765-0.765
				s0.343-0.765,0.765-0.765C63.38,180.294,63.723,180.636,63.723,181.059"/>
			<path fill="#1C425B" d="M63.723,186.244c0,0.422-0.343,0.765-0.765,0.765c-0.422,0-0.765-0.343-0.765-0.765
				c0-0.422,0.343-0.765,0.765-0.765C63.38,185.479,63.723,185.822,63.723,186.244"/>
		</g>
	</g>
	<g>
		<path opacity="0.45" fill="#F5F5F5" d="M33.926,169.159h-0.216c0-2.932-5.395-5.309-12.051-5.309s-12.051,2.377-12.051,5.309
			v17.603h0.222c1.066,2.452,5.953,4.306,11.829,4.306s10.764-1.854,11.829-4.306h0.438V169.159z"/>
		<g>
			<path fill="#1C425B" d="M21.767,164.174c-6.288,0-11.6,2.199-11.6,4.799c0,2.601,5.312,4.799,11.6,4.799
				c6.287,0,11.601-2.198,11.601-4.799C33.368,166.373,28.054,164.174,21.767,164.174 M21.767,174.653
				c-6.999,0-12.48-2.494-12.48-5.679c0-3.184,5.481-5.679,12.48-5.679c6.999,0,12.48,2.495,12.48,5.679
				C34.247,172.158,28.765,174.653,21.767,174.653"/>
			<path fill="#1C425B" d="M21.767,180.24c-6.327,0-11.569-2.105-12.195-4.897l-0.049-0.214l0.43-0.097l0.048,0.215
				c0.572,2.553,5.74,4.553,11.766,4.553c6.026,0,11.195-2.001,11.766-4.553l0.048-0.215l0.43,0.097l-0.049,0.214
				C33.338,178.135,28.095,180.24,21.767,180.24"/>
			<path fill="#1C425B" d="M21.767,186.004c-6.327,0-11.57-2.106-12.195-4.897c-0.027-0.118,0.047-0.236,0.166-0.262
				c0.126-0.026,0.235,0.048,0.263,0.165c0.572,2.554,5.74,4.553,11.766,4.553c6.027,0,11.195-2,11.766-4.553
				c0.027-0.117,0.144-0.187,0.263-0.165c0.119,0.026,0.194,0.143,0.166,0.262C33.338,183.898,28.095,186.004,21.767,186.004"/>
			<path fill="#1C425B" d="M21.767,191.623c-6.427,0-11.762-2.178-12.409-5.068l-0.07-0.783l-0.001-16.38h0.88v16.344l0.059,0.686
				c0.542,2.396,5.615,4.321,11.542,4.321c5.927,0,11.001-1.925,11.551-4.381l0.05-0.663v-16.308h0.879v16.344l-0.061,0.759
				C33.53,189.444,28.195,191.623,21.767,191.623"/>
			<path fill="#1C425B" d="M31.723,175.295c0,0.422-0.343,0.765-0.765,0.765s-0.765-0.343-0.765-0.765s0.343-0.765,0.765-0.765
				S31.723,174.872,31.723,175.295"/>
			<path fill="#1C425B" d="M31.723,181.059c0,0.422-0.343,0.765-0.765,0.765s-0.765-0.343-0.765-0.765s0.343-0.765,0.765-0.765
				S31.723,180.636,31.723,181.059"/>
			<path fill="#1C425B" d="M31.723,186.244c0,0.422-0.343,0.765-0.765,0.765s-0.765-0.343-0.765-0.765
				c0-0.422,0.343-0.765,0.765-0.765S31.723,185.822,31.723,186.244"/>
		</g>
	</g>
	<path fill="none" stroke="#1C425B" stroke-width="0.5" stroke-miterlimit="10" d="M149.767,157.648c0,6.148,0,6.202,0,6.202
		S149.767,163.797,149.767,157.648s0-11.133,0-11.133S149.767,151.5,149.767,157.648z"/>
	<path fill="none" stroke="#1C425B" stroke-width="0.5" stroke-miterlimit="10" d="M117.767,157.648c0,6.148,0,6.202,0,6.202
		S117.767,163.797,117.767,157.648s0-11.133,0-11.133S117.767,151.5,117.767,157.648z"/>
	<path fill="none" stroke="#1C425B" stroke-width="0.5" stroke-miterlimit="10" d="M85.767,157.648c0,6.148,0,6.202,0,6.202
		S85.767,163.797,85.767,157.648s0-11.133,0-11.133S85.767,151.5,85.767,157.648z"/>
	<path fill="none" stroke="#1C425B" stroke-width="0.5" stroke-miterlimit="10" d="M53.767,157.648c0,6.148,0,6.202,0,6.202
		S53.767,163.797,53.767,157.648s0-11.133,0-11.133S53.767,151.5,53.767,157.648z"/>
	<path fill="none" stroke="#1C425B" stroke-width="0.5" stroke-miterlimit="10" d="M21.767,157.648c0,6.148,0,6.202,0,6.202
		C21.767,163.85,21.767,163.797,21.767,157.648c0-6.148,0-11.133,0-11.133C21.767,146.515,21.767,151.5,21.767,157.648z"/>
</g>
<g>
	<g>
		<path fill="#459ED7" d="M229.596,120.731c0,0.615-0.5,1.115-1.115,1.115s-1.115-0.5-1.115-1.115c0-0.615,0.5-1.115,1.115-1.115
			S229.596,120.135,229.596,120.731z"/>
		<path fill="#459ED7" d="M231.038,120.731c0,0.615,0.5,1.115,1.115,1.115s1.115-0.5,1.115-1.115c0-0.615-0.5-1.115-1.115-1.115
			S231.038,120.135,231.038,120.731z"/>
		<path fill="#459ED7" d="M238.652,121.943c-0.077,0-0.154,0.019-0.231,0.019c-0.5,0-0.981-0.115-1.423-0.327
			c0.135-0.827,0.212-1.673,0.192-2.519c-0.481-0.692-1.019-1.327-1.615-1.923c0.269-0.5,0.654-0.923,1.134-1.231l0.212-0.135
			l-0.173-0.192c-0.846-0.942-1.846-1.673-2.98-2.173l-0.231-0.096l-0.077,0.269c-0.135,0.558-0.423,1.058-0.808,1.461
			c-0.75-0.404-1.538-0.711-2.346-0.961c-0.808,0.231-1.596,0.558-2.346,0.961c-0.404-0.404-0.673-0.904-0.808-1.461l-0.058-0.231
			l-0.231,0.096c-1.134,0.5-2.154,1.25-2.98,2.173l-0.173,0.192l0.212,0.135c0.5,0.288,0.865,0.711,1.134,1.211
			c-0.615,0.596-1.134,1.25-1.615,1.923c-0.019,0.827,0.038,1.673,0.192,2.519c-0.442,0.212-0.923,0.327-1.404,0.327
			c-0.077,0-0.173,0-0.25-0.019l-0.231-0.019l0.019,0.231c0.135,1.25,0.5,2.423,1.134,3.519l0.135,0.212l0.192-0.154
			c0.442-0.365,0.961-0.615,1.519-0.711c0.365,0.75,0.808,1.461,1.288,2.115c0.788,0.288,1.615,0.481,2.461,0.615
			c0.077,0.558,0.019,1.134-0.212,1.673l-0.096,0.231l0.231,0.058c0.615,0.135,1.25,0.192,1.846,0.192l1.846-0.192l0.231-0.058
			l-0.096-0.231c-0.231-0.538-0.288-1.134-0.212-1.692c0.846-0.135,1.673-0.327,2.461-0.615c0.5-0.654,0.923-1.365,1.288-2.134
			c0.558,0.096,1.077,0.346,1.519,0.711l0.192,0.154l0.135-0.212c0.654-1.077,1.038-2.269,1.134-3.519l0.019-0.231L238.652,121.943z
			 M232.961,124.962c-0.865,0.231-1.769,0.346-2.654,0.346s-1.769-0.135-2.654-0.346c-0.481-0.75-0.865-1.558-1.134-2.384
			c-0.269-0.827-0.442-1.711-0.481-2.615c0.558-0.711,1.211-1.308,1.923-1.827c0.711-0.519,1.5-0.942,2.346-1.269
			c0.827,0.327,1.615,0.75,2.346,1.269c0.711,0.519,1.346,1.134,1.923,1.827c-0.038,0.904-0.212,1.769-0.481,2.615
			C233.826,123.404,233.441,124.212,232.961,124.962z"/>
	</g>
	<g>
		<path fill="#010101" d="M245.671,115.444c2.827,0,4.423,2.038,4.423,5.211c0,0.385-0.019,0.75-0.077,1.019h-7.499
			c0.135,2.404,1.577,3.903,3.692,3.903c1.058,0,1.942-0.346,2.769-0.865l0.654,1.231c-0.961,0.615-2.154,1.134-3.653,1.134
			c-2.961,0-5.326-2.173-5.326-5.807C240.71,117.655,243.152,115.444,245.671,115.444z M248.459,120.443c0-2.269-1-3.519-2.73-3.519
			c-1.557,0-2.961,1.269-3.192,3.519H248.459z"/>
		<path fill="#010101" d="M252.228,117.251h-1.634v-1.423l1.731-0.115l0.231-3.096h1.577v3.096h2.98v1.538h-3v6.172
			c0,1.365,0.442,2.154,1.711,2.154c0.385,0,0.885-0.154,1.25-0.288l0.365,1.423c-0.615,0.212-1.365,0.404-2.057,0.404
			c-2.365,0-3.173-1.5-3.173-3.692L252.228,117.251L252.228,117.251z"/>
		<path fill="#010101" d="M263.246,115.444c1.461,0,2.48,0.615,3.25,1.327l-0.942,1.211c-0.654-0.577-1.346-0.981-2.23-0.981
			c-2,0-3.461,1.731-3.461,4.288c0,2.538,1.384,4.249,3.423,4.249c1.058,0,1.942-0.519,2.596-1.115l0.846,1.231
			c-1,0.885-2.288,1.442-3.615,1.442c-2.942,0-5.211-2.115-5.211-5.807C257.9,117.559,260.381,115.444,263.246,115.444z"/>
		<path fill="#010101" d="M272.014,115.444c1.269,0,2.115,0.481,3.096,1.288l-0.096-1.904v-4.269h1.904v16.248h-1.557l-0.154-1.308
			h-0.077c-0.865,0.846-2.057,1.577-3.365,1.577c-2.788,0-4.596-2.096-4.596-5.807C267.187,117.674,269.476,115.444,272.014,115.444
			z M272.187,125.519c1.019,0,1.923-0.5,2.827-1.538v-5.807c-0.942-0.846-1.788-1.173-2.692-1.173c-1.788,0-3.192,1.711-3.192,4.249
			C269.13,123.923,270.245,125.519,272.187,125.519z"/>
	</g>
</g>
<path fill="none" stroke="#1C425B" stroke-width="0.5" stroke-miterlimit="10" d="M202.5,121.092c-8.419,0-8.492,0-8.492,0
	S194.08,121.092,202.5,121.092s15.245,0,15.245,0S210.919,121.092,202.5,121.092z"/>
</svg>
